<ttFont>
          <CharString index="0">
            -35 -15 -16 -28 -3 hvcurveto
            -4 hlineto
            28 -4 -15 16 -35 hhcurveto
            -105 callgsubr
            return
          </CharString>
          <CharString index="1">
            92 callgsubr
            -74 140 439 callgsubr
            22 -28 callsubr
            -147 101 callsubr
            56 -139 -297 hlineto
            -72 callsubr
            60 vlineto
            4 callgsubr
            return
          </CharString>
          <CharString index="2">
            -7 -103 callsubr
            return
          </CharString>
          <CharString index="3">
            -107 callgsubr
            322 -47 callgsubr
            return
          </CharString>
          <CharString index="4">
            5 21 hvcurveto
            return
          </CharString>
          <CharString index="5">
            -19 -105 callsubr
            return
          </CharString>
          <CharString index="6">
            -81 40 -14 callgsubr
            413 callgsubr
            -92 -10 callgsubr
            -17 466 callgsubr
            186 vlineto
            81 -40 32 -76 vhcurveto
            -61 -41 callsubr
          </CharString>
          <CharString index="7">
            -100 callgsubr
            18 vhcurveto
            return
          </CharString>
          <CharString index="8">
            189 callgsubr
            -186 -64 callgsubr
            return
          </CharString>
          <CharString index="9">
            hlineto
            21 14 -86 callgsubr
          </CharString>
          <CharString index="10">
            -32 92 vhcurveto
            105 hlineto
            92 30 -79 callsubr
            return
          </CharString>
          <CharString index="11">
            hlineto
            -102 callsubr
            return
          </CharString>
          <CharString index="12">
            -81 39 -14 callgsubr
            -84 callsubr
            return
          </CharString>
          <CharString index="13">
            rmoveto
            -61 -6 -32 -27 -65 vvcurveto
            -93 callgsubr
            166 hlineto
            return
          </CharString>
          <CharString index="14">
            -18 -105 callsubr
            return
          </CharString>
          <CharString index="15">
            hlineto
            -107 callsubr
            return
          </CharString>
          <CharString index="16">
            -21 -9 513 callgsubr
            return
          </CharString>
          <CharString index="17">
            -67 callsubr
            vlineto
            return
          </CharString>
          <CharString index="18">
            7 9 4 11 16 vvcurveto
            121 vlineto
            11 -2 8 return
          </CharString>
          <CharString index="19">
            79 callgsubr
            -285 -24 callgsubr
            return
          </CharString>
          <CharString index="20">
            444 callsubr
            129 vlineto
            26 5 5 26 vhcurveto
            50 -160 hlineto
            -82 callsubr
            return
          </CharString>
          <CharString index="21">
            -76 callgsubr
            -37 return
          </CharString>
          <CharString index="22">
            rmoveto
            344 callgsubr
            -48 68 callgsubr
            48 223 callsubr
            -117 130 rmoveto
            246 callsubr
            -415 247 callsubr
            91 vhcurveto
            134 hlineto
            91 35 42 69 hvcurveto
            415 483 callgsubr
            endchar
          </CharString>
          <CharString index="23">
            62 -59 callgsubr
            return
          </CharString>
          <CharString index="24">
            187 callgsubr
            102 170 callsubr
            return
          </CharString>
          <CharString index="25">
            -21 -9 -44 callgsubr
            return
          </CharString>
          <CharString index="26">
            23 vlineto
            382 callsubr
            146 468 callgsubr
            -78 -36 -30 -68 hvcurveto
            -61 79 39 -100 callsubr
            6 -28 callsubr
            -110 -47 callsubr
            -119 return
          </CharString>
          <CharString index="27">
            -71 callgsubr
            89 358 callsubr
            return
          </CharString>
          <CharString index="28">
            273 callgsubr
            -140 -22 callgsubr
            return
          </CharString>
          <CharString index="29">
            -539 -44 callsubr
            return
          </CharString>
          <CharString index="30">
            vhcurveto
            30 hlineto
            21 -82 callgsubr
            return
          </CharString>
          <CharString index="31">
            4 6 2 9 10 vvcurveto
            141 241 callgsubr
            -85 hlineto
            -100 -36 -32 -81 hvcurveto
            -126 vlineto
            -19 5 -14 10 -10 vhcurveto
            -43 -10 -24 -34 -55 vvcurveto
            -136 vlineto
            -68 37 -33 61 vhcurveto
            122 102 callgsubr
            -81 140 246 -140 -54 vlineto
            -22 -10 -7 -19 vhcurveto
            -73 -89 callgsubr
            93 -37 callgsubr
            return
          </CharString>
          <CharString index="32">
            -21 -46 callsubr
            return
          </CharString>
          <CharString index="33">
            vlineto
            -21 313 callsubr
            -230 -99 callgsubr
            116 -17 callgsubr
            35 97 -35 29 callsubr
            return
          </CharString>
          <CharString index="34">
            -65 callgsubr
            -146 -96 callsubr
            89 -36 callsubr
            return
          </CharString>
          <CharString index="35">
            -67 418 callgsubr
            117 callgsubr
            90 -140 -76 -5 callsubr
            131 return
          </CharString>
          <CharString index="36">
            hlineto
            -63 callgsubr
            return
          </CharString>
          <CharString index="37">
            89 callsubr
            -34 17 callsubr
            63 -143 -82 247 callsubr
            91 vhcurveto
            121 351 callsubr
            150 vlineto
            68 -31 41 -89 vhcurveto
            -86 hlineto
            -20 -7 6 18 hvcurveto
            112 12 callgsubr
            34 36 callgsubr
            -63 143 83 483 callgsubr
            -122 hlineto
            -91 -35 -42 -68 hvcurveto
            -145 vlineto
            -68 30 -44 88 vhcurveto
            88 hlineto
            20 308 callgsubr
            return
          </CharString>
          <CharString index="38">
            9 hvcurveto
            -54 callgsubr
          </CharString>
          <CharString index="39">
            139 -61 callsubr
          </CharString>
          <CharString index="40">
            277 callsubr
            64 return
          </CharString>
          <CharString index="41">
            89 callsubr
            -17 hlineto
            -19 -7 7 18 hvcurveto
            35 -136 -43 443 callsubr
            89 12 callsubr
            72 vlineto
            68 -34 41 -91 vhcurveto
            -57 hlineto
            -20 -7 6 18 hvcurveto
            60 -69 callgsubr
            6 20 vhcurveto
            15 hlineto
            20 308 callgsubr
            -36 134 44 vlineto
            69 226 callsubr
            -85 381 callsubr
            -75 vlineto
            -68 34 -42 91 vhcurveto
            57 hlineto
            20 308 callgsubr
            return
          </CharString>
          <CharString index="42">
            rmoveto
            -104 callgsubr
            return
          </CharString>
          <CharString index="43">
            hlineto
            -99 callsubr
            return
          </CharString>
          <CharString index="44">
            -34 callgsubr
            -4 -15 16 return
          </CharString>
          <CharString index="45">
            -63 callsubr
            -35 hhcurveto
            return
          </CharString>
          <CharString index="46">
            539 65 vlineto
            endchar
          </CharString>
          <CharString index="47">
            -40 callsubr
            235 -84 callgsubr
            return
          </CharString>
          <CharString index="48">
            vlineto
            -107 callsubr
            return
          </CharString>
          <CharString index="49">
            320 callsubr
            140 69 vlineto
            74 -43 29 -66 vhcurveto
            endchar
          </CharString>
          <CharString index="50">
            rmoveto
            -51 callsubr
            return
          </CharString>
          <CharString index="51">
            rmoveto
            -12 callsubr
            89 -162 rlineto
            -11 -3 -8 -3 -13 hhcurveto
            return
          </CharString>
          <CharString index="52">
            32 81 hvcurveto
            return
          </CharString>
          <CharString index="53">
            -133 41 callsubr
            135 return
          </CharString>
          <CharString index="54">
            140 callgsubr
            36 -55 callsubr
            return
          </CharString>
          <CharString index="55">
            rmoveto
            -358 335 callsubr
            -23 17 callsubr
            365 -140 -384 421 callgsubr
            490 callgsubr
          </CharString>
          <CharString index="56">
            -65 callgsubr
            -146 -99 callgsubr
            return
          </CharString>
          <CharString index="57">
            -141 -97 97 -28 callsubr
            -155 81 callgsubr
            64 -140 -74 vlineto
            -81 37 -32 99 188 callgsubr
            return
          </CharString>
          <CharString index="58">
            209 -57 callsubr
            return
          </CharString>
          <CharString index="59">
            rmoveto
            -20 -7 7 18 hvcurveto
            235 355 callgsubr
            -221 335 callsubr
            return
          </CharString>
          <CharString index="60">
            -3 callgsubr
            -19 vhcurveto
            return
          </CharString>
          <CharString index="61">
            -8 33 callsubr
            return
          </CharString>
          <CharString index="62">
            458 callsubr
            68 97 -68 -96 callsubr
            return
          </CharString>
          <CharString index="63">
            38 callsubr
            65 return
          </CharString>
          <CharString index="64">
            -77 callgsubr
            -142 vlineto
            -35 16 -15 28 -4 vhcurveto
            14 callgsubr
            return
          </CharString>
          <CharString index="65">
            -48 callsubr
            32 return
          </CharString>
          <CharString index="66">
            -35 callgsubr
            vlineto
            endchar
          </CharString>
          <CharString index="67">
            -67 418 callgsubr
            62 98 -18 -96 callgsubr
            return
          </CharString>
          <CharString index="68">
            -65 callgsubr
            -122 -45 callsubr
            200 callgsubr
            return
          </CharString>
          <CharString index="69">
            8 callsubr
            -18 vhcurveto
            -188 100 175 hlineto
            472 callgsubr
            -353 -305 97 callgsubr
            return
          </CharString>
          <CharString index="70">
            -29 -73 callgsubr
            return
          </CharString>
          <CharString index="71">
            13 vlineto
            93 -26 callgsubr
            return
          </CharString>
          <CharString index="72">
            hlineto
            -49 callgsubr
            return
          </CharString>
          <CharString index="73">
            116 callsubr
            64 -89 rcurveline
            -97 -96 callsubr
            return
          </CharString>
          <CharString index="74">
            30 callsubr
            -48 hlineto
            -19 -7 7 18 hvcurveto
            506 -143 -525 224 callsubr
            234 callsubr
            525 return
          </CharString>
          <CharString index="75">
            202 -65 callsubr
            return
          </CharString>
          <CharString index="76">
            vlineto
            -35 16 -15 -72 callgsubr
            return
          </CharString>
          <CharString index="77">
            21 22 callgsubr
            return
          </CharString>
          <CharString index="78">
            140 callsubr
            -50 140 35 257 callsubr
            return
          </CharString>
          <CharString index="79">
            hlineto
            19 219 callsubr
            return
          </CharString>
          <CharString index="80">
            -68 callgsubr
            -67 30 -32 92 vhcurveto
            111 hlineto
            92 29 32 67 hvcurveto
            -61 callgsubr
            return
          </CharString>
          <CharString index="81">
            rmoveto
            73 hlineto
            89 35 30 74 hvcurveto
            175 73 callsubr
            231 97 -623 243 callgsubr
            584 509 rmoveto
            -92 -29 -39 -67 hvcurveto
            -74 139 161 callsubr
            -36 56 -140 -180 173 callgsubr
            17 90 -59 177 callsubr
            438 callgsubr
            90 -139 -76 vlineto
            -18 -8 167 callsubr
            131 59 109 callgsubr
          </CharString>
          <CharString index="82">
            -47 callsubr
            -28 196 callsubr
            return
          </CharString>
          <CharString index="83">
            -67 callgsubr
            -406 229 rmoveto
            1 callsubr
            return
          </CharString>
          <CharString index="84" raw="1">
            a01de206 ef0b  
          </CharString>
          <CharString index="85">
            -42 callsubr
            334 rmoveto
            77 callsubr
            -137 vlineto
            return
          </CharString>
          <CharString index="86">
            49 -31 -28 18 -68 hhcurveto
            -84 -97 22 hlineto
            37 15 -12 -38 23 hvcurveto
            54 -90 121 callgsubr
            return
          </CharString>
          <CharString index="87">
            230 callsubr
            -379 349 callgsubr
          </CharString>
          <CharString index="88">
            -18 -7 -5 return
          </CharString>
          <CharString index="89">
            60 112 58 -112 227 callgsubr
            return
          </CharString>
          <CharString index="90">
            193 callgsubr
            -132 0 callsubr
            return
          </CharString>
          <CharString index="91">
            -107 callsubr
            52 -2 hlineto
            return
          </CharString>
          <CharString index="92">
            21 9 5 18 vhcurveto
            return
          </CharString>
          <CharString index="93">
            42 callgsubr
            -32 -74 callgsubr
            32 hlineto
            18 9 -5 -21 hvcurveto
            202 186 152 callsubr
            return
          </CharString>
          <CharString index="94">
            1 callsubr
            -59 23 -32 68 -7 vhcurveto
            -89 -146 rlineto
            119 hlineto
            108 callsubr
            return
          </CharString>
          <CharString index="95">
            -102 callsubr
            138 168 callgsubr
            16 -50 33 -59 vhcurveto
            return
          </CharString>
          <CharString index="96">
            -2 callsubr
            18 vhcurveto
            21 hlineto
            return
          </CharString>
          <CharString index="97">
            rmoveto
            160 97 97 -515 -97 279 -63 -93 378 callsubr
            -264 vlineto
            -73 30 -34 80 -5 392 callsubr
            146 rlineto
            75 7 29 34 71 vvcurveto
            113 callsubr
          </CharString>
          <CharString index="98">
            rmoveto
            -84 hlineto
            -89 callsubr
            return
          </CharString>
          <CharString index="99">
            446 callsubr
            338 84 -337 vlineto
            -75 callsubr
            return
          </CharString>
          <CharString index="100">
            209 rmoveto
            -65 callgsubr
            return
          </CharString>
          <CharString index="101">
            -74 46 -30 104 178 callgsubr
            272 -323 hlineto
            -22 -8 -7 -20 174 callgsubr
            -29 -32 -67 hvcurveto
            -170 vlineto
            -81 39 -14 callgsubr
            58 319 callsubr
            139 163 callgsubr
          </CharString>
          <CharString index="102">
            vlineto
            -1 callsubr
            return
          </CharString>
          <CharString index="103">
            28 202 callsubr
            -28 return
          </CharString>
          <CharString index="104">
            -16 -28 -3 hvcurveto
            -4 hlineto
            28 return
          </CharString>
          <CharString index="105">
            67 -29 39 -92 vhcurveto
            -108 -29 callsubr
            return
          </CharString>
          <CharString index="106">
            -19 callsubr
            -14 vhcurveto
            -22 -96 callgsubr
            return
          </CharString>
          <CharString index="107">
            vlineto
            -35 -4 callgsubr
            return
          </CharString>
          <CharString index="108">
            -97 250 55 callsubr
            return
          </CharString>
          <CharString index="109">
            435 callsubr
            -8 -7 -25 vhcurveto
            -24 140 107 callsubr
            return
          </CharString>
          <CharString index="110">
            450 callgsubr
            122 101 callgsubr
            71 -66 callgsubr
            87 hlineto
            -559 195 callgsubr
            99 -84 callgsubr
            55 hlineto
            763 313 494 callgsubr
            -63 -48 callgsubr
            -186 114 -35 callsubr
            -99 334 callgsubr
            -130 41 callsubr
            132 74 -132 vlineto
            453 callgsubr
            -92 -68 callsubr
          </CharString>
          <CharString index="111">
            rmoveto
            -1087 -15 callgsubr
            308 98 -285 hlineto
            -25 -8 7 26 hvcurveto
            104 73 vlineto
            89 35 30 74 hvcurveto
            175 73 callsubr
            496 -337 hlineto
            105 callgsubr
            -119 355 callsubr
            108 -31 callgsubr
            -132 vlineto
            -81 39 -14 callgsubr
            66 hlineto
            20 16 3 8 11 hvcurveto
            -46 14 36 -19 59 454 callgsubr
            60 vlineto
            endchar
          </CharString>
          <CharString index="112">
            -67 418 callgsubr
            141 240 callsubr
            116 -140 -102 -3 callgsubr
            -14 vhcurveto
            -58 -96 callgsubr
            426 106 -146 -48 callgsubr
            -35 -97 78 hlineto
            93 29 31 67 hvcurveto
            168 62 vlineto
            endchar
          </CharString>
          <CharString index="113">
            rmoveto
            16 4 6 18 vhcurveto
            36 hlineto
            18 5 -6 -16 hvcurveto
            -11 vlineto
            -16 -5 -44 callgsubr
            -36 hlineto
            -18 -4 5 16 hvcurveto
            79 -84 rmoveto
            67 24 30 52 hvcurveto
            16 vlineto
            51 -24 31 -67 vhcurveto
            -78 hlineto
            -67 -24 -31 -51 hvcurveto
            -16 vlineto
            -52 24 -30 67 vhcurveto
            return
          </CharString>
          <CharString index="114">
            -338 -102 callgsubr
            return
          </CharString>
          <CharString index="115">
            -49 callsubr
            141 101 callgsubr
            52 332 callgsubr
            -77 rmoveto
            -19 callsubr
            return
          </CharString>
          <CharString index="116">
            352 vlineto
            21 8 6 return
          </CharString>
          <CharString index="117">
            -42 callgsubr
            -146 442 callsubr
            145 107 callsubr
            250 98 -227 hlineto
            -25 -8 7 26 hvcurveto
            99 73 vlineto
            89 35 31 74 hvcurveto
            179 73 callsubr
            return
          </CharString>
          <CharString index="118">
            328 callgsubr
            235 501 callgsubr
            -379 320 callgsubr
          </CharString>
          <CharString index="119">
            hlineto
            45 callsubr
            return
          </CharString>
          <CharString index="120">
            45 callgsubr
            -92 -90 callsubr
            endchar
          </CharString>
          <CharString index="121">
            -91 -36 145 callsubr
            36 -42 91 vhcurveto
            102 12 callsubr
            67 -136 -48 444 callgsubr
            -26 hlineto
            215 callgsubr
            18 7 7 20 vhcurveto
            26 36 callgsubr
            -48 return
          </CharString>
          <CharString index="122">
            -7 callsubr
            -146 hlineto
            return
          </CharString>
          <CharString index="123">
            27 callgsubr
            -92 140 return
          </CharString>
          <CharString index="124">
            hlineto
            -19 callgsubr
            return
          </CharString>
          <CharString index="125">
            110 callgsubr
            -285 -87 callgsubr
            58 114 callgsubr
            return
          </CharString>
          <CharString index="126">
            -65 callsubr
            315 84 vlineto
            return
          </CharString>
          <CharString index="127">
            225 callgsubr
            24 hlineto
            return
          </CharString>
          <CharString index="128" raw="1">
            f72f461d 0b  
          </CharString>
          <CharString index="129">
            hlineto
            -19 -55 callgsubr
            return
          </CharString>
          <CharString index="130">
            hlineto
            100 159 callsubr
            return
          </CharString>
          <CharString index="131">
            rmoveto
            53 -74 rlineto
            132 hlineto
            -118 143 rlineto
            -134 hlineto
            -119 -143 rlineto
            133 hlineto
            return
          </CharString>
          <CharString index="132">
            vlineto
            21 7 return
          </CharString>
          <CharString index="133">
            131 callsubr
            197 hlineto
            28 return
          </CharString>
          <CharString index="134">
            hlineto
            -92 -29 28 callsubr
            return
          </CharString>
          <CharString index="135">
            -73 callgsubr
            234 callgsubr
            return
          </CharString>
          <CharString index="136">
            -99 callgsubr
            117 130 callsubr
            return
          </CharString>
          <CharString index="137">
            -18 -7 -7 -20 vhcurveto
            return
          </CharString>
          <CharString index="138">
            rmoveto
            -21 -7 -5 -19 vhcurveto
            -38 hlineto
            -21 -5 8 18 hvcurveto
            152 vlineto
            18 5 8 21 vhcurveto
            38 -2 callgsubr
            -21 hvcurveto
            -222 -152 rmoveto
            -18 -5 -8 -21 vhcurveto
            -38 -96 callsubr
            152 18 callgsubr
            38 483 callsubr
            426 186 rmoveto
            97 -720 -97 420 -63 vlineto
            -36 -3 -18 -15 -3 -26 rrcurveto
            191 callgsubr
            74 -33 33 -63 5 519 callgsubr
          </CharString>
          <CharString index="139">
            31 -7 callgsubr
            return
          </CharString>
          <CharString index="140">
            -6 -18 vhcurveto
            return
          </CharString>
          <CharString index="141">
            308 callsubr
            32 -2 callgsubr
            -21 hvcurveto
            -162 -3 callgsubr
            -19 vhcurveto
            -17 466 callgsubr
            186 vlineto
            81 -40 32 -76 vhcurveto
            -61 -41 callsubr
          </CharString>
          <CharString index="142">
            161 rlineto
            -104 -98 callgsubr
          </CharString>
          <CharString index="143">
            63 callgsubr
            16 12 402 callgsubr
            return
          </CharString>
          <CharString index="144">
            hhcurveto
            165 -98 callsubr
          </CharString>
          <CharString index="145">
            139 539 return
          </CharString>
          <CharString index="146">
            -18 callsubr
            -90 149 rlineto
            61 11 23 33 65 vvcurveto
            -57 callgsubr
            return
          </CharString>
          <CharString index="147">
            -64 callsubr
            75 return
          </CharString>
          <CharString index="148">
            vlineto
            -81 36 166 callsubr
            return
          </CharString>
          <CharString index="149">
            vlineto
            18 229 callsubr
            return
          </CharString>
          <CharString index="150">
            20 callsubr
            45 27 20 36 9 hvcurveto
            -56 return
          </CharString>
          <CharString index="151">
            9 9 hvcurveto
            return
          </CharString>
          <CharString index="152">
            91 183 callsubr
            return
          </CharString>
          <CharString index="153">
            -99 callgsubr
            155 116 callgsubr
            97 -61 hlineto
            return
          </CharString>
          <CharString index="154">
            -4 280 392 rmoveto
            364 callsubr
            -49 hlineto
            -20 -7 6 18 hvcurveto
            116 -69 callgsubr
            6 20 vhcurveto
            49 hlineto
            20 308 callgsubr
            -379 vmoveto
            -19 431 callgsubr
            -49 hlineto
            -20 -7 6 19 hvcurveto
            122 447 callgsubr
            49 380 callgsubr
            137 275 rmoveto
            68 -36 42 -90 vhcurveto
            -125 hlineto
            -91 -35 -42 -68 hvcurveto
            -110 vlineto
            -45 10 -33 34 -15 vhcurveto
            -34 -14 -10 -28 -45 vvcurveto
            -125 224 callsubr
            125 hlineto
            90 183 callsubr
            125 vlineto
            45 -10 28 -35 14 vhcurveto
            35 15 10 33 45 vvcurveto
            endchar
          </CharString>
          <CharString index="155">
            64 callsubr
            89 13 vlineto
            92 -26 callgsubr
            87 hlineto
            -209 -129 268 callsubr
            return
          </CharString>
          <CharString index="156">
            rmoveto
            -133 -116 133 hlineto
            -221 116 rmoveto
            -133 -116 133 hlineto
            return
          </CharString>
          <CharString index="157">
            15 callsubr
            -19 -7 5 21 hvcurveto
            return
          </CharString>
          <CharString index="158">
            vlineto
            -39 callsubr
            7 -28 callsubr
            -39 78 61 vlineto
            68 -36 486 callgsubr
            -37 -30 -68 hvcurveto
            -142 vlineto
            -35 100 callgsubr
            -17 vlineto
            63 callgsubr
            17 12 hvcurveto
            -18 426 callgsubr
            return
          </CharString>
          <CharString index="159">
            rmoveto
            -867 292 callgsubr
            98 -186 340 callsubr
            -312 357 callgsubr
            134 -31 callgsubr
            -158 vlineto
            -65 25 -33 50 -11 vhcurveto
            -104 -163 rlineto
            147 hlineto
            104 166 rlineto
            -109 138 -61 callsubr
          </CharString>
          <CharString index="160">
            rmoveto
            173 callsubr
            -37 -32 440 callsubr
            114 509 vlineto
            -707 -364 -8 callsubr
            880 461 rmoveto
            -1140 16 callsubr
            315 -47 callgsubr
            53 -151 434 callsubr
            75 -379 43 callgsubr
          </CharString>
          <CharString index="161">
            vlineto
            15 callgsubr
          </CharString>
          <CharString index="162">
            -63 -66 vlineto
            -68 callgsubr
            return
          </CharString>
          <CharString index="163">
            rmoveto
            -21 -9 154 callgsubr
            19 vhcurveto
            55 hlineto
            432 304 rmoveto
            -204 -208 -89 106 hlineto
            -11 callsubr
            return
          </CharString>
          <CharString index="164">
            rmoveto
            97 -682 1 callgsubr
            352 -47 callgsubr
            33 hlineto
            18 7 -5 -21 hvcurveto
            -139 -48 callgsubr
            -18 466 callgsubr
            163 vlineto
            81 -40 32 -76 vhcurveto
            -61 -41 callsubr
          </CharString>
          <CharString index="165">
            -77 callgsubr
            -74 -308 vlineto
            -99 callsubr
            80 vlineto
            7 -15 13 -7 19 -3 rrcurveto
            393 callsubr
            return
          </CharString>
          <CharString index="166">
            18 7 5 19 vhcurveto
            17 188 callsubr
            return
          </CharString>
          <CharString index="167">
            -97 62 72 callgsubr
            return
          </CharString>
          <CharString index="168">
            rmoveto
            441 callsubr
            -143 vlineto
            -18 -7 -6 -19 vhcurveto
            -77 hlineto
            125 -339 rmoveto
            153 hlineto
            -112 242 rlineto
            57 13 23 38 55 vvcurveto
            178 483 callgsubr
            -262 449 callgsubr
            238 25 hlineto
            endchar
          </CharString>
          <CharString index="169">
            rlineto
            137 hlineto
            172 180 rlineto
            -109 -98 callgsubr
          </CharString>
          <CharString index="170">
            75 callgsubr
            -61 hlineto
            return
          </CharString>
          <CharString index="171">
            209 450 callgsubr
            return
          </CharString>
          <CharString index="172">
            -97 271 -337 vlineto
            -107 callgsubr
            return
          </CharString>
          <CharString index="173">
            vlineto
            153 callsubr
            -68 callsubr
          </CharString>
          <CharString index="174">
            42 callgsubr
            -25 hlineto
            -18 -9 5 21 hvcurveto
            130 vlineto
            478 callgsubr
            return
          </CharString>
          <CharString index="175">
            -97 279 78 callgsubr
            return
          </CharString>
          <CharString index="176">
            167 105 -167 155 196 105 -339 -636 347 105 return
          </CharString>
          <CharString index="177">
            56 callgsubr
            -139 -10 rmoveto
            -81 36 -32 100 vhcurveto
            -39 callgsubr
            188 134 97 -367 378 callsubr
            return
          </CharString>
          <CharString index="178">
            -25 callsubr
            -67 417 callsubr
            111 hlineto
            92 return
          </CharString>
          <CharString index="179">
            vlineto
            59 callsubr
            return
          </CharString>
          <CharString index="180">
            vlineto
            11 -2 8 -5 6 vhcurveto
            return
          </CharString>
          <CharString index="181">
            -681 76 callgsubr
          </CharString>
          <CharString index="182">
            42 callgsubr
            -39 22 callsubr
            111 170 callsubr
            -435 -134 -16 callgsubr
            111 142 callsubr
            return
          </CharString>
          <CharString index="183">
            -49 callsubr
            89 13 vlineto
            92 -26 callgsubr
            86 hlineto
            return
          </CharString>
          <CharString index="184">
            60 callgsubr
            139 495 return
          </CharString>
          <CharString index="185">
            122 -130 hlineto
            -75 9 -52 0 vhcurveto
            0 -17 52 -33 60 vhcurveto
            80 callsubr
            return
          </CharString>
          <CharString index="186">
            vhcurveto
            -30 -99 callgsubr
            146 -100 callsubr
            return
          </CharString>
          <CharString index="187">
            -64 -219 -56 callsubr
            return
          </CharString>
          <CharString index="188">
            -11 200 349 rmoveto
            -20 -7 6 19 hvcurveto
            132 12 callgsubr
            43 223 callsubr
            -157 vlineto
            -109 287 rmoveto
            246 callsubr
            -165 vlineto
            -68 36 -42 91 vhcurveto
            109 -121 hlineto
            344 callgsubr
            -38 17 callsubr
            63 -139 -82 247 callsubr
            91 vhcurveto
            116 hlineto
            165 callgsubr
          </CharString>
          <CharString index="189">
            -66 callsubr
            endchar
          </CharString>
          <CharString index="190">
            -10 277 361 callgsubr
            -43 hlineto
            -19 -7 7 18 hvcurveto
            144 69 vlineto
            92 callsubr
            -96 126 rmoveto
            131 -69 callgsubr
            7 19 vhcurveto
            36 36 callgsubr
            -66 140 86 226 callgsubr
            -115 hlineto
            246 callsubr
            -415 247 callsubr
            91 vhcurveto
            122 12 callsubr
            154 390 callgsubr
          </CharString>
          <CharString index="191">
            432 callsubr
            -187 hlineto
            312 callsubr
            97 hlineto
            -100 241 callsubr
            return
          </CharString>
          <CharString index="192">
            116 callgsubr
            90 return
          </CharString>
          <CharString index="193">
            rmoveto
            -19 callgsubr
            214 355 callgsubr
            -200 502 callsubr
            369 429 callsubr
            -252 342 callsubr
            -76 vlineto
            -19 -8 -6 -19 vhcurveto
            -172 -102 212 hlineto
            90 183 callsubr
            517 vlineto
            endchar
          </CharString>
          <CharString index="194">
            -35 335 callgsubr
            -50 hlineto
            -20 -7 6 18 hvcurveto
            35 -125 -32 247 callsubr
            91 vhcurveto
            return
          </CharString>
          <CharString index="195">
            -62 callsubr
            -120 hlineto
            return
          </CharString>
          <CharString index="196">
            rmoveto
            30 callsubr
            return
          </CharString>
          <CharString index="197">
            vlineto
            7 8 4 12 15 vvcurveto
            112 vlineto
            79 -36 33 -101 vhcurveto
            -75 hlineto
            -101 -35 -33 -79 hvcurveto
            -123 vlineto
            -75 32 -34 91 -3 vhcurveto
            -154 -141 rlineto
            161 hlineto
            152 141 rlineto
            return
          </CharString>
          <CharString index="198">
            -93 -3 callgsubr
            return
          </CharString>
          <CharString index="199">
            20 149 callsubr
            return
          </CharString>
          <CharString index="200">
            59 -28 29 -60 vhcurveto
            -102 hlineto
            -29 -6 5 29 hvcurveto
            16 -139 -59 vlineto
            -59 28 -29 60 vhcurveto
            102 290 callsubr
            -22 return
          </CharString>
          <CharString index="201">
            338 callgsubr
            -78 81 callgsubr
            17 -140 -27 vlineto
            -81 37 -32 99 vhcurveto
            82 hlineto
            86 38 23 58 10 hvcurveto
            75 hlineto
            -297 -307 62 callsubr
          </CharString>
          <CharString index="202">
            -65 callgsubr
            -34 -99 callgsubr
            152 -17 callgsubr
            29 97 -252 194 callgsubr
            return
          </CharString>
          <CharString index="203">
            -130 hlineto
            25 -60 22 -52 13 -34 24 -42 rlinecurve
            -5 hlineto
            -28 45 -26 34 -46 56 -43 53 rcurveline
            return
          </CharString>
          <CharString index="204">
            hlineto
            109 callsubr
            return
          </CharString>
          <CharString index="205">
            88 callsubr
            -76 -39 return
          </CharString>
          <CharString index="206">
            -19 -6 5 16 hvcurveto
            25 vlineto
            16 6 6 19 vhcurveto
            69 return
          </CharString>
          <CharString index="207">
            446 callgsubr
            87 hlineto
            100 36 31 81 hvcurveto
            return
          </CharString>
          <CharString index="208">
            -51 callgsubr
            -37 return
          </CharString>
          <CharString index="209">
            18 219 callsubr
            return
          </CharString>
          <CharString index="210">
            171 callsubr
            458 384 rmoveto
            -702 136 callgsubr
            271 88 -291 66 callsubr
          </CharString>
          <CharString index="211">
            rmoveto
            124 -467 rlineto
            59 hlineto
            -5 -20 rlineto
            -31 -10 -19 -6 -28 hhcurveto
            -62 -104 75 hlineto
            96 44 45 76 21 hvcurveto
            117 507 rlineto
            -141 hlineto
            -60 -344 -66 344 rlineto
            return
          </CharString>
          <CharString index="212">
            vlineto
            -89 callsubr
            -5 6 vhcurveto
            return
          </CharString>
          <CharString index="213">
            -66 callgsubr
            86 hlineto
            return
          </CharString>
          <CharString index="214">
            -140 -368 268 callgsubr
            return
          </CharString>
          <CharString index="215">
            138 callsubr
            64 8 21 32 57 vvcurveto
            -61 callgsubr
            return
          </CharString>
          <CharString index="216">
            -21 callgsubr
            -196 hlineto
            -81 43 -32 93 vhcurveto
            return
          </CharString>
          <CharString index="217">
            rmoveto
            -116 107 510 callsubr
          </CharString>
          <CharString index="218">
            -97 250 25 callgsubr
            return
          </CharString>
          <CharString index="219">
            -75 callsubr
            -28 hlineto
            -18 return
          </CharString>
          <CharString index="220">
            -62 callgsubr
            endchar
          </CharString>
          <CharString index="221">
            vlineto
            -67 29 175 callgsubr
            return
          </CharString>
          <CharString index="222">
            -55 callsubr
            188 68 33 callgsubr
            return
          </CharString>
          <CharString index="223">
            rmoveto
            18 -22 23 -36 18 -29 return
          </CharString>
          <CharString index="224">
            311 callgsubr
            -99 256 callgsubr
            228 97 -199 3 callgsubr
            70 vlineto
            21 248 callgsubr
            33 90 callgsubr
            -29 139 39 241 callgsubr
            -63 hlineto
            -18 -8 290 callgsubr
            22 callgsubr
            endchar
          </CharString>
          <CharString index="225">
            52 -20 636 rmoveto
            -97 553 97 vlineto
            -491 -160 rmoveto
            222 callsubr
            136 97 -275 -212 vlineto
            454 callsubr
            vlineto
            352 -186 rmoveto
            -352 -347 rlineto
            150 hlineto
            202 206 rlineto
            return
          </CharString>
          <CharString index="226">
            rmoveto
            17 -22 24 -36 17 -29 64 -89 rcurveline
            -97 -99 callgsubr
            return
          </CharString>
          <CharString index="227">
            rmoveto
            -91 143 rlineto
            288 callgsubr
            return
          </CharString>
          <CharString index="228">
            rmoveto
            61 callgsubr
            return
          </CharString>
          <CharString index="229">
            -65 -91 callgsubr
            return
          </CharString>
          <CharString index="230">
            0 vhcurveto
            0 -37 52 -32 44 vhcurveto
            return
          </CharString>
          <CharString index="231">
            -32 92 vhcurveto
            97 98 return
          </CharString>
          <CharString index="232">
            84 vlineto
            -307 -107 rmoveto
            107 84 -107 vlineto
            -223 -222 -83 callsubr
            650 301 rmoveto
            -929 -25 callgsubr
            84 return
          </CharString>
          <CharString index="233">
            rmoveto
            312 callgsubr
            -125 hlineto
            -92 -143 rlineto
            54 143 rmoveto
            -125 hlineto
            -92 -143 rlineto
            94 hlineto
            return
          </CharString>
          <CharString index="234">
            rmoveto
            -506 -97 302 -314 281 callgsubr
            129 vlineto
            273 callsubr
            98 35 callsubr
          </CharString>
          <CharString index="235">
            rmoveto
            -697 -97 492 -63 -214 -212 hlineto
            454 callsubr
            -139 222 callsubr
            75 -149 vlineto
            -291 -287 rlineto
            150 hlineto
            141 144 rlineto
            -87 43 callgsubr
          </CharString>
          <CharString index="236">
            161 rlineto
            -104 362 callgsubr
            139 callsubr
            return
          </CharString>
          <CharString index="237">
            vlineto
            25 6 7 23 1 vhcurveto
            return
          </CharString>
          <CharString index="238">
            -65 callgsubr
            -153 hlineto
            -40 callgsubr
            return
          </CharString>
          <CharString index="239">
            -46 167 506 rmoveto
            18 7 7 19 vhcurveto
            25 36 callgsubr
            -59 vlineto
            -46 -9 -26 -33 -42 vhcurveto
            -176 -236 rlineto
            -97 361 105 -187 vlineto
            128 187 rlineto
            38 50 19 39 64 vvcurveto
            81 vlineto
            68 -37 42 -91 vhcurveto
            -108 hlineto
            -91 -35 -42 -68 hvcurveto
            -104 143 vlineto
            endchar
          </CharString>
          <CharString index="240">
            -75 122 99 callgsubr
            259 684 232 callsubr
          </CharString>
          <CharString index="241">
            280 callsubr
            -177 vlineto
            -57 23 496 callgsubr
            99 129 callsubr
            -8 5 21 hvcurveto
            129 -37 callgsubr
            endchar
          </CharString>
          <CharString index="242">
            rmoveto
            -73 callsubr
            86 hlineto
            163 callsubr
            return
          </CharString>
          <CharString index="243">
            89 callgsubr
            113 hlineto
            36 23 7 16 18 hvcurveto
            -15 22 27 -8 52 hhcurveto
            return
          </CharString>
          <CharString index="244">
            -337 281 callgsubr
            152 vlineto
            24 8 2 26 vhcurveto
            20 97 return
          </CharString>
          <CharString index="245">
            -18 callsubr
            -89 147 rlineto
            return
          </CharString>
          <CharString index="246">
            vlineto
            112 callsubr
            return
          </CharString>
          <CharString index="247">
            hlineto
            92 callgsubr
            return
          </CharString>
          <CharString index="248">
            -65 callsubr
            338 84 vlineto
            277 hmoveto
            97 -563 60 callsubr
            315 -47 callgsubr
            111 97 -90 -71 callsubr
            114 vlineto
            endchar
          </CharString>
          <CharString index="249">
            -84 callgsubr
            49 hlineto
            return
          </CharString>
          <CharString index="250">
            rmoveto
            -490 -97 286 -315 hlineto
            -21 313 callsubr
            -33 -96 callsubr
            132 72 callsubr
            -177 372 callgsubr
            539 64 vlineto
            endchar
          </CharString>
          <CharString index="251">
            50 callgsubr
            -92 140 return
          </CharString>
          <CharString index="252">
            183 callgsubr
            -69 return
          </CharString>
          <CharString index="253">
            92 30 16 callgsubr
            return
          </CharString>
          <CharString index="254">
            356 56 callgsubr
            return
          </CharString>
          <CharString index="255">
            -68 callgsubr
            -67 417 callsubr
            97 -67 -90 211 callgsubr
            64 return
          </CharString>
          <CharString index="256">
            7 -7 -18 hvcurveto
            return
          </CharString>
          <CharString index="257">
            -193 -31 callsubr
            -68 vlineto
            -66 418 callgsubr
            78 363 callsubr
            -94 139 478 -139 -74 vlineto
            -20 -7 -5 -19 vhcurveto
            -54 3 callgsubr
            121 -37 callgsubr
            endchar
          </CharString>
          <CharString index="258" raw="1">
            f506890a 0b  
          </CharString>
          <CharString index="259">
            rmoveto
            69 callgsubr
            return
          </CharString>
          <CharString index="260">
            -310 -319 rlineto
            138 hlineto
            172 180 rlineto
            -109 return
          </CharString>
          <CharString index="261">
            -338 -16 callgsubr
            return
          </CharString>
          <CharString index="262">
            hlineto
            -19 199 callsubr
            19 vhcurveto
            return
          </CharString>
          <CharString index="263">
            265 callsubr
            -143 vlineto
            -81 40 -14 callgsubr
            return
          </CharString>
          <CharString index="264">
            142 callgsubr
            141 14 365 callsubr
            -9 -5 -18 vhcurveto
            -21 hlineto
            -19 -8 5 21 hvcurveto
            118 261 callsubr
            return
          </CharString>
          <CharString index="265">
            166 callsubr
            135 89 -335 -68 callsubr
          </CharString>
          <CharString index="266">
            37 -55 callsubr
            return
          </CharString>
          <CharString index="267">
            480 callsubr
            150 -31 callgsubr
            -174 vlineto
            -81 39 -14 callgsubr
            73 hlineto
            29 18 7 13 359 callgsubr
            272 callsubr
            188 return
          </CharString>
          <CharString index="268">
            439 callgsubr
            23 17 callgsubr
            -147 -51 callgsubr
            return
          </CharString>
          <CharString index="269">
            39 -92 vhcurveto
            200 -4 rmoveto
            -636 -44 callsubr
            97 vlineto
            endchar
          </CharString>
          <CharString index="270">
            204 97 rmoveto
            return
          </CharString>
          <CharString index="271">
            290 callsubr
            -77 122 callsubr
            return
          </CharString>
          <CharString index="272">
            160 65 97 -486 -97 282 -63 -96 return
          </CharString>
          <CharString index="273">
            -32 100 vhcurveto
            235 callsubr
            return
          </CharString>
          <CharString index="274">
            -5 -14 235 callgsubr
            return
          </CharString>
          <CharString index="275">
            -81 39 -14 callgsubr
            460 callsubr
            65 vlineto
            endchar
          </CharString>
          <CharString index="276">
            hlineto
            29 212 callsubr
            return
          </CharString>
          <CharString index="277">
            -100 callsubr
            68 hlineto
            return
          </CharString>
          <CharString index="278">
            444 callsubr
            70 vlineto
            26 5 5 26 vhcurveto
            50 -101 hlineto
            -82 callsubr
            return
          </CharString>
          <CharString index="279">
            106 callgsubr
            -117 -79 vlineto
            -61 return
          </CharString>
          <CharString index="280">
            -214 -275 hlineto
            79 callgsubr
            return
          </CharString>
          <CharString index="281">
            -22 -9 -6 198 callsubr
            return
          </CharString>
          <CharString index="282">
            -238 181 hmoveto
            495 -139 -495 vlineto
            return
          </CharString>
          <CharString index="283">
            hlineto
            -18 -8 5 18 hvcurveto
            return
          </CharString>
          <CharString index="284">
            246 callgsubr
            -6 201 callgsubr
            return
          </CharString>
          <CharString index="285">
            -84 callgsubr
            8 17 callgsubr
            -39 79 61 vlineto
            68 -37 30 -78 vhcurveto
            -48 47 callgsubr
            return
          </CharString>
          <CharString index="286">
            hlineto
            -19 -7 5 return
          </CharString>
          <CharString index="287">
            19 callsubr
            163 callsubr
            -492 -97 65 -325 hlineto
            387 callsubr
            539 64 vlineto
            endchar
          </CharString>
          <CharString index="288">
            rmoveto
            134 hlineto
            118 143 rlineto
            -132 hlineto
            -53 -73 -53 73 rlineto
            -133 hlineto
            return
          </CharString>
          <CharString index="289">
            rmoveto
            518 callgsubr
            -133 hlineto
            221 -116 rmoveto
            518 callgsubr
            -133 hlineto
            return
          </CharString>
          <CharString index="290">
            36 42 69 hvcurveto
            return
          </CharString>
          <CharString index="291">
            29 7 6 29 vhcurveto
            37 97 -57 hlineto
            -60 -17 -33 -35 -23 3 -47 4 -44 hvcurveto
            -3 hlineto
            -4 25 -8 32 -8 29 -9 37 rcurveline
            -130 hlineto
            43 -63 34 -51 22 -30 38 -44 rlinecurve
            -5 hlineto
            -41 45 -33 34 -60 56 -57 53 rcurveline
            return
          </CharString>
          <CharString index="292">
            rmoveto
            18 7 6 18 vhcurveto
            19 hlineto
            18 308 callgsubr
            -123 vlineto
            -18 -7 33 callsubr
            -19 hlineto
            -18 -7 6 18 hvcurveto
            return
          </CharString>
          <CharString index="293">
            vlineto
            -81 36 -32 100 188 callgsubr
            return
          </CharString>
          <CharString index="294">
            -223 48 636 318 callgsubr
            return
          </CharString>
          <CharString index="295">
            97 146 callgsubr
            return
          </CharString>
          <CharString index="296">
            29 16 callgsubr
            return
          </CharString>
          <CharString index="297">
            -97 65 -194 hlineto
            -34 16 -16 -72 callgsubr
            -122 vlineto
            -81 36 -32 100 vhcurveto
            137 23 callsubr
            122 vlineto
            34 -16 15 -28 4 vhcurveto
            4 vlineto
            28 3 16 16 34 vvcurveto
            return
          </CharString>
          <CharString index="298">
            31 295 callsubr
            413 130 rmoveto
            return
          </CharString>
          <CharString index="299">
            rmoveto
            426 callsubr
            -84 22 callsubr
            95 -17 callgsubr
            87 381 callgsubr
            -16 119 rmoveto
            -96 hlineto
            406 callsubr
            return
          </CharString>
          <CharString index="300">
            197 callsubr
            311 callgsubr
            return
          </CharString>
          <CharString index="301">
            vlineto
            -67 417 callsubr
            285 callgsubr
            return
          </CharString>
          <CharString index="302">
            -264 -78 callgsubr
            return
          </CharString>
          <CharString index="303">
            127 callgsubr
            48 -140 -62 vlineto
            return
          </CharString>
          <CharString index="304">
            -97 274 -63 -88 378 callsubr
            return
          </CharString>
          <CharString index="305">
            -19 vhcurveto
            -30 -99 callgsubr
            return
          </CharString>
          <CharString index="306">
            -7 290 callgsubr
            7 6 return
          </CharString>
          <CharString index="307">
            vlineto
            18 248 callgsubr
            return
          </CharString>
          <CharString index="308">
            vlineto
            68 -37 30 -78 vhcurveto
            return
          </CharString>
          <CharString index="309">
            -3 vhcurveto
            -4 vlineto
            return
          </CharString>
          <CharString index="310">
            253 callsubr
            175 -84 callgsubr
            69 -128 hlineto
            453 callgsubr
            -92 -68 callsubr
          </CharString>
          <CharString index="311">
            13 vlineto
            92 26 return
          </CharString>
          <CharString index="312">
            351 callgsubr
            -36 89 -177 hlineto
            272 callgsubr
            260 vlineto
            -42 callgsubr
            return
          </CharString>
          <CharString index="313">
            rmoveto
            -225 45 vlineto
            473 callgsubr
            vlineto
            endchar
          </CharString>
          <CharString index="314">
            -461 -435 834 rmoveto
            124 -108 55 -48 30 -23 40 -24 rlinecurve
            136 hlineto
            -24 203 346 callgsubr
            return
          </CharString>
          <CharString index="315">
            vlineto
            67 -29 39 -92 vhcurveto
            -50 callsubr
            return
          </CharString>
          <CharString index="316">
            24 8 2 26 vhcurveto
            20 97 -252 376 callgsubr
            return
          </CharString>
          <CharString index="317">
            hlineto
            -139 198 rlineto
            -167 hlineto
            61 -81 37 -48 33 -38 37 -31 rlinecurve
            return
          </CharString>
          <CharString index="318">
            -67 418 callgsubr
            105 240 callsubr
            return
          </CharString>
          <CharString index="319">
            6 320 callsubr
            140 69 vlineto
            74 -43 29 return
          </CharString>
          <CharString index="320">
            15 callsubr
            -18 return
          </CharString>
          <CharString index="321">
            36 hlineto
            23 15 -32 callgsubr
            return
          </CharString>
          <CharString index="322">
            vlineto
            -34 16 -16 -72 callgsubr
            -99 256 callgsubr
            228 97 -199 386 callgsubr
            return
          </CharString>
          <CharString index="323">
            -337 hlineto
            375 callgsubr
            155 200 callsubr
            18 97 return
          </CharString>
          <CharString index="324">
            vlineto
            -59 25 -32 53 -7 403 callsubr
            148 hlineto
            return
          </CharString>
          <CharString index="325">
            67 -29 39 -92 vhcurveto
            return
          </CharString>
          <CharString index="326">
            7 -5 -18 hvcurveto
            return
          </CharString>
          <CharString index="327">
            225 callgsubr
            68 hlineto
            43 39 21 30 15 hvcurveto
            -30 16 35 -21 57 hhcurveto
            68 12 callsubr
            46 -136 -31 335 callgsubr
            -39 hlineto
            -20 -7 6 18 hvcurveto
            80 return
          </CharString>
          <CharString index="328">
            -81 36 -32 100 vhcurveto
            214 callsubr
            -150 139 335 -139 -75 289 callsubr
            -27 -96 callsubr
            151 -37 callgsubr
            endchar
          </CharString>
          <CharString index="329">
            -222 -78 callgsubr
            125 return
          </CharString>
          <CharString index="330">
            hlineto
            19 149 callsubr
            return
          </CharString>
          <CharString index="331">
            vlineto
            -69 277 callgsubr
            return
          </CharString>
          <CharString index="332">
            -4 -6 -2 -9 -10 vvcurveto
            return
          </CharString>
          <CharString index="333">
            -36 42 -91 vhcurveto
            return
          </CharString>
          <CharString index="334">
            69 callgsubr
            -81 36 -32 100 vhcurveto
            79 -67 -82 210 callgsubr
            56 return
          </CharString>
          <CharString index="335">
            375 callsubr
            98 129 callsubr
            -7 5 21 hvcurveto
            129 415 callgsubr
            endchar
          </CharString>
          <CharString index="336">
            4 8 21 vhcurveto
            return
          </CharString>
          <CharString index="337">
            vlineto
            -67 29 -32 92 vhcurveto
            97 98 -53 371 callgsubr
            -179 140 179 vlineto
            18 4 8 21 vhcurveto
            52 return
          </CharString>
          <CharString index="338">
            -148 -78 callgsubr
            -57 callgsubr
            endchar
          </CharString>
          <CharString index="339">
            rmoveto
            -376 -105 116 -531 143 531 117 hlineto
            endchar
          </CharString>
          <CharString index="340">
            -67 26 -33 52 -10 vhcurveto
            -101 -161 rlineto
            148 hlineto
            return
          </CharString>
          <CharString index="341">
            134 12 callsubr
            return
          </CharString>
          <CharString index="342">
            87 hlineto
            100 36 -55 callsubr
            return
          </CharString>
          <CharString index="343">
            422 callgsubr
            338 84 vlineto
            -282 494 callsubr
            285 callsubr
            return
          </CharString>
          <CharString index="344">
            hlineto
            368 callsubr
          </CharString>
          <CharString index="345">
            vlineto
            -81 40 -14 callgsubr
            61 hlineto
            23 15 -86 callgsubr
          </CharString>
          <CharString index="346">
            hlineto
            -43 callgsubr
            return
          </CharString>
          <CharString index="347">
            hlineto
            93 189 callsubr
            return
          </CharString>
          <CharString index="348">
            -158 rlineto
            148 hlineto
            return
          </CharString>
          <CharString index="349">
            -8 -5 -19 vhcurveto
            return
          </CharString>
          <CharString index="350">
            3 callgsubr
            152 -37 callgsubr
            190 165 callsubr
            hlineto
            189 callgsubr
            -186 vlineto
            -81 36 -32 100 vhcurveto
            return
          </CharString>
          <CharString index="351">
            rmoveto
            -18 -8 -7 -19 vhcurveto
            -79 440 479 callgsubr
            -636 265 vlineto
            165 callgsubr
          </CharString>
          <CharString index="352">
            334 callsubr
            -46 69 -140 -225 140 66 89 240 callsubr
            return
          </CharString>
          <CharString index="353">
            -91 -36 -42 -68 hvcurveto
            return
          </CharString>
          <CharString index="354">
            vlineto
            -69 36 -42 return
          </CharString>
          <CharString index="355">
            -7 callsubr
            -71 64 callgsubr
            29 8 4 34 vhcurveto
            89 hlineto
            return
          </CharString>
          <CharString index="356">
            rmoveto
            133 hlineto
            53 74 53 -74 rlineto
            132 hlineto
            -118 143 rlineto
            -134 hlineto
            endchar
          </CharString>
          <CharString index="357">
            -379 -98 callgsubr
          </CharString>
          <CharString index="358">
            -91 331 callgsubr
            -16 16 -34 hhcurveto
            -120 hlineto
            -77 -39 -32 -81 hvcurveto
            -161 vlineto
            -104 callgsubr
            return
          </CharString>
          <CharString index="359">
            -108 rmoveto
            -18 -9 -9 -19 vhcurveto
            -48 -97 78 hlineto
            91 38 42 71 hvcurveto
            71 -131 vlineto
            return
          </CharString>
          <CharString index="360">
            vlineto
            -40 callsubr
            return
          </CharString>
          <CharString index="361">
            202 rmoveto
            478 callsubr
            return
          </CharString>
          <CharString index="362">
            6 callgsubr
            -96 318 callsubr
            return
          </CharString>
          <CharString index="363">
            vlineto
            302 callgsubr
            return
          </CharString>
          <CharString index="364">
            vlineto
            19 7 5 return
          </CharString>
          <CharString index="365">
            432 rmoveto
            -89 107 89 hlineto
            -228 -329 42 callgsubr
            -39 22 callsubr
            102 170 callsubr
            432 301 rmoveto
            return
          </CharString>
          <CharString index="366">
            209 135 callsubr
            return
          </CharString>
          <CharString index="367">
            -58 283 701 rmoveto
            -295 -784 rlineto
            122 hlineto
            294 784 rlineto
            endchar
          </CharString>
          <CharString index="368">
            -100 callsubr
            50 hlineto
            return
          </CharString>
          <CharString index="369">
            189 callgsubr
            -264 vlineto
            -81 36 -32 100 vhcurveto
            83 hlineto
            4 -67 -90 210 callgsubr
            64 return
          </CharString>
          <CharString index="370">
            vlineto
            -81 36 -32 100 325 callgsubr
            return
          </CharString>
          <CharString index="371">
            -22 -9 -7 -19 79 callsubr
            return
          </CharString>
          <CharString index="372">
            -10 -5 -14 -21 vvcurveto
            return
          </CharString>
          <CharString index="373">
            vlineto
            19 248 callgsubr
            103 hlineto
            93 29 31 67 hvcurveto
            53 vlineto
            67 -29 32 -93 vhcurveto
            -95 -96 callgsubr
            18 430 callgsubr
          </CharString>
          <CharString index="374">
            516 callsubr
            hlineto
            -81 return
          </CharString>
          <CharString index="375">
            rmoveto
            383 callgsubr
            return
          </CharString>
          <CharString index="376">
            196 634 -196 hlineto
            236 -185 rmoveto
            196 185 -196 hlineto
            return
          </CharString>
          <CharString index="377">
            62 261 callgsubr
            return
          </CharString>
          <CharString index="378">
            -66 callgsubr
            87 hlineto
            -209 return
          </CharString>
          <CharString index="379">
            82 hlineto
            100 36 -55 callsubr
            return
          </CharString>
          <CharString index="380">
            209 callsubr
            -134 vlineto
            -60 27 -32 56 -6 403 callsubr
            149 hlineto
            return
          </CharString>
          <CharString index="381">
            -330 -57 callsubr
            89 13 vlineto
            92 -26 callgsubr
            86 hlineto
            return
          </CharString>
          <CharString index="382">
            14 callgsubr
            163 -98 callsubr
          </CharString>
          <CharString index="383">
            -335 -98 callgsubr
          </CharString>
          <CharString index="384">
            140 539 return
          </CharString>
          <CharString index="385">
            200 105 rmoveto
            215 callgsubr
            19 7 6 20 vhcurveto
            23 hlineto
            20 10 -9 -23 hvcurveto
            -221 335 callsubr
            30 return
          </CharString>
          <CharString index="386">
            -92 -29 -32 -67 hvcurveto
            -133 339 callsubr
          </CharString>
          <CharString index="387">
            rmoveto
            165 callsubr
            378 callsubr
            return
          </CharString>
          <CharString index="388">
            rmoveto
            379 callgsubr
            481 callgsubr
            return
          </CharString>
          <CharString index="389">
            vlineto
            22 7 5 19 vhcurveto
            30 hlineto
            21 4 -8 -19 hvcurveto
            return
          </CharString>
          <CharString index="390">
            -66 callgsubr
            87 hlineto
            163 callsubr
            return
          </CharString>
          <CharString index="391">
            -44 -27 -20 -36 -9 hvcurveto
            56 -137 return
          </CharString>
          <CharString index="392">
            -330 vlineto
            -65 callgsubr
            return
          </CharString>
          <CharString index="393">
            -348 vlineto
            -81 40 -14 callgsubr
            return
          </CharString>
          <CharString index="394">
            120 443 callgsubr
            return
          </CharString>
          <CharString index="395" raw="1">
            3006f7c6 1d0b  
          </CharString>
          <CharString index="396">
            vlineto
            -21 -8 -6 -19 vhcurveto
            return
          </CharString>
          <CharString index="397">
            hlineto
            29 6 -6 -29 hvcurveto
            return
          </CharString>
          <CharString index="398">
            -25 391 336 callgsubr
            67 97 -488 -97 282 -63 -96 378 callsubr
            -186 vlineto
            -49 13 -31 32 -17 vhcurveto
            return
          </CharString>
          <CharString index="399">
            66 hlineto
            93 callsubr
            return
          </CharString>
          <CharString index="400">
            202 rmoveto
            105 callgsubr
            return
          </CharString>
          <CharString index="401">
            rmoveto
            105 -65 92 -139 -92 -52 -105 52 -279 443 callsubr
            78 107 -38 hlineto
            -19 -8 6 18 hvcurveto
            259 vlineto
            endchar
          </CharString>
          <CharString index="402">
            6 6 callgsubr
            return
          </CharString>
          <CharString index="403">
            hlineto
            -2 callsubr
            19 vhcurveto
            20 289 callgsubr
            return
          </CharString>
          <CharString index="404">
            hlineto
            28 16 9 17 8 hvcurveto
            -18 22 35 -8 46 396 callsubr
          </CharString>
          <CharString index="405" raw="1">
            f720f7f4 07f7691d 0b 
          </CharString>
          <CharString index="406">
            3 callgsubr
            155 vlineto
            18 return
          </CharString>
          <CharString index="407">
            vhcurveto
            18 90 -36 callgsubr
            return
          </CharString>
          <CharString index="408">
            rmoveto
            -343 -91 343 hlineto
            return
          </CharString>
          <CharString index="409">
            201 186 callgsubr
            return
          </CharString>
          <CharString index="410">
            8 21 32 57 vvcurveto
            -61 callgsubr
            162 153 return
          </CharString>
          <CharString index="411">
            109 rmoveto
            14 10 2 3 10 hvcurveto
            -90 vlineto
            -21 -8 -6 -17 vhcurveto
            -56 hlineto
            -17 -55 callgsubr
            60 vlineto
            21 248 callgsubr
            return
          </CharString>
          <CharString index="412">
            517 callgsubr
            -76 vhcurveto
            return
          </CharString>
          <CharString index="413">
            456 callgsubr
            -21 hvcurveto
            return
          </CharString>
          <CharString index="414">
            hlineto
            93 44 -55 callsubr
            return
          </CharString>
          <CharString index="415">
            372 callgsubr
            352 -47 callgsubr
            return
          </CharString>
          <CharString index="416">
            60 callsubr
            352 -47 callgsubr
            return
          </CharString>
          <CharString index="417">
            -5 -21 hvcurveto
            -29 140 39 vlineto
            81 -37 32 -100 vhcurveto
            -63 hlineto
            -18 199 callsubr
            18 vhcurveto
            endchar
          </CharString>
          <CharString index="418">
            -242 37 148 rmoveto
            -293 45 vlineto
            100 213 rlineto
            80 vlineto
            return
          </CharString>
          <CharString index="419">
            -67 32 -32 69 vhcurveto
            return
          </CharString>
          <CharString index="420">
            -7 -44 callgsubr
            return
          </CharString>
          <CharString index="421">
            1021 476 rmoveto
            -92 367 callgsubr
            return
          </CharString>
          <CharString index="422">
            -94 callgsubr
            322 -47 callgsubr
            58 -2 hlineto
            return
          </CharString>
          <CharString index="423">
            -54 callsubr
            89 276 callsubr
          </CharString>
          <CharString index="424">
            rmoveto
            -146 hlineto
            -79 -299 -85 299 rlineto
            -146 hlineto
            160 -430 rlineto
            -206 143 205 vlineto
            endchar
          </CharString>
          <CharString index="425">
            -47 callsubr
            -111 return
          </CharString>
          <CharString index="426">
            102 callgsubr
            -105 return
          </CharString>
          <CharString index="427">
            -6 -29 hvcurveto
            -40 return
          </CharString>
          <CharString index="428">
            33 351 callgsubr
            -36 89 -184 hlineto
            272 callgsubr
            267 vlineto
            -42 callgsubr
            return
          </CharString>
          <CharString index="429">
            142 callsubr
            412 257 rmoveto
            -678 -97 474 332 callsubr
            return
          </CharString>
          <CharString index="430">
            -337 hlineto
            -21 -8 -6 -18 vhcurveto
            -33 46 callsubr
            return
          </CharString>
          <CharString index="431">
            vlineto
            -67 418 callgsubr
            62 98 -18 176 callsubr
            return
          </CharString>
          <CharString index="432">
            186 callsubr
            188 return
          </CharString>
          <CharString index="433">
            vlineto
            17 7 5 18 vhcurveto
            91 137 74 hlineto
            163 callsubr
            return
          </CharString>
          <CharString index="434">
            hlineto
            306 callgsubr
            -5 hlineto
            28 -3 -15 16 -35 hhcurveto
            return
          </CharString>
          <CharString index="435">
            202 121 callsubr
            return
          </CharString>
          <CharString index="436">
            138 callgsubr
            -89 return
          </CharString>
          <CharString index="437">
            421 636 rmoveto
            -441 -97 441 hlineto
            return
          </CharString>
          <CharString index="438" raw="1">
            790a330b   
          </CharString>
          <CharString index="439">
            -63 319 callgsubr
            return
          </CharString>
          <CharString index="440">
            -214 400 callsubr
            return
          </CharString>
          <CharString index="441">
            vlineto
            -19 313 callsubr
            return
          </CharString>
          <CharString index="442">
            vlineto
            179 callgsubr
            return
          </CharString>
          <CharString index="443">
            -57 vlineto
            -67 29 -32 return
          </CharString>
          <CharString index="444">
            -23 -10 -5 -19 vhcurveto
            -85 hlineto
            -19 -10 5 23 hvcurveto
            79 vlineto
            23 10 5 19 vhcurveto
            85 hlineto
            19 10 -5 -23 hvcurveto
            return
          </CharString>
          <CharString index="445">
            rmoveto
            -363 -105 182 callgsubr
            endchar
          </CharString>
          <CharString index="446">
            vlineto
            144 callgsubr
          </CharString>
          <CharString index="447">
            hlineto
            -25 -8 7 26 hvcurveto
            104 73 vlineto
            89 35 30 74 hvcurveto
            175 73 callsubr
            272 return
          </CharString>
          <CharString index="448">
            148 hlineto
            99 163 rlineto
            -106 423 callsubr
            return
          </CharString>
          <CharString index="449">
            20 callsubr
            42 27 17 32 10 hvcurveto
            return
          </CharString>
          <CharString index="450">
            rmoveto
            -94 90 94 vlineto
            endchar
          </CharString>
          <CharString index="451">
            -131 367 callsubr
            return
          </CharString>
          <CharString index="452">
            50 -139 -39 vlineto
            -82 callsubr
            -58 -89 callgsubr
            70 -37 callgsubr
            return
          </CharString>
          <CharString index="453">
            479 callsubr
            27 16 9 16 8 hvcurveto
            -17 22 33 -8 49 hhcurveto
            return
          </CharString>
          <CharString index="454">
            -31 44 vhcurveto
            -52 78 rlineto
            74 90 -136 hlineto
            -92 -30 28 callsubr
            return
          </CharString>
          <CharString index="455">
            -5 5 16 hvcurveto
            150 vlineto
            16 5 6 return
          </CharString>
          <CharString index="456">
            vlineto
            69 -35 42 -82 vhcurveto
            endchar
          </CharString>
          <CharString index="457">
            -5 -7 -3 -9 -11 vvcurveto
            return
          </CharString>
          <CharString index="458">
            hlineto
            406 callgsubr
            return
          </CharString>
          <CharString index="459">
            vlineto
            168 callsubr
          </CharString>
          <CharString index="460">
            16 callgsubr
            186 220 callgsubr
          </CharString>
          <CharString index="461">
            708 rmoveto
            89 -90 vlineto
            -93 369 callgsubr
            -77 140 63 389 callsubr
          </CharString>
          <CharString index="462">
            vlineto
            480 callsubr
            return
          </CharString>
          <CharString index="463">
            hlineto
            -99 -158 437 callgsubr
            return
          </CharString>
          <CharString index="464">
            hlineto
            -26 -5 5 26 hvcurveto
            17 vlineto
            26 5 5 26 vhcurveto
            return
          </CharString>
          <CharString index="465">
            -78 callsubr
            vlineto
            return
          </CharString>
          <CharString index="466">
            285 307 callsubr
            return
          </CharString>
          <CharString index="467">
            vhcurveto
            -39 -89 callgsubr
            return
          </CharString>
          <CharString index="468">
            hlineto
            378 callgsubr
            return
          </CharString>
          <CharString index="469">
            -103 callsubr
            130 vlineto
            21 return
          </CharString>
          <CharString index="470">
            hlineto
            23 404 callgsubr
            return
          </CharString>
          <CharString index="471">
            -18 431 callgsubr
            return
          </CharString>
          <CharString index="472">
            484 callsubr
            52 106 callsubr
            -561 -338 rmoveto
            -21 return
          </CharString>
          <CharString index="473">
            453 callsubr
            -170 vlineto
            -81 39 -14 callgsubr
            return
          </CharString>
          <CharString index="474">
            -16 callgsubr
            107 413 callsubr
            return
          </CharString>
          <CharString index="475">
            -95 callsubr
            539 64 vlineto
            endchar
          </CharString>
          <CharString index="476">
            vlineto
            387 callsubr
            return
          </CharString>
          <CharString index="477">
            vlineto
            -65 callgsubr
            -34 -99 callgsubr
            152 -17 callgsubr
            return
          </CharString>
          <CharString index="478">
            -21 -9 511 callgsubr
            93 307 callgsubr
            55 hlineto
            return
          </CharString>
          <CharString index="479">
            vhcurveto
            388 callsubr
          </CharString>
          <CharString index="480">
            -19 -6 vlineto
            410 callgsubr
          </CharString>
          <CharString index="481">
            -15 callsubr
            32 90 callgsubr
            return
          </CharString>
          <CharString index="482">
            -8 vhcurveto
            -101 -160 rlineto
            148 hlineto
            return
          </CharString>
          <CharString index="483">
            -100 vlineto
            312 callsubr
            73 hlineto
            return
          </CharString>
          <CharString index="484">
            305 callsubr
            -62 hlineto
            -23 return
          </CharString>
          <CharString index="485">
            vlineto
            189 callgsubr
            return
          </CharString>
          <CharString index="486" raw="1">
            b5d01ff8 33070b  
          </CharString>
          <CharString index="487">
            hlineto
            100 37 31 81 hvcurveto
            return
          </CharString>
          <CharString index="488">
            hlineto
            -91 -36 -42 -69 hvcurveto
            return
          </CharString>
          <CharString index="489">
            92 29 39 67 hvcurveto
            return
          </CharString>
          <CharString index="490">
            386 rmoveto
            153 return
          </CharString>
          <CharString index="491">
            29 -67 vhcurveto
            endchar
          </CharString>
          <CharString index="492">
            vhcurveto
            225 164 callsubr
            return
          </CharString>
          <CharString index="493">
            121 callgsubr
            22 -188 38 callsubr
            return
          </CharString>
          <CharString index="494">
            233 callsubr
            98 161 rlineto
            -104 140 return
          </CharString>
          <CharString index="495">
            82 271 callgsubr
            -68 callsubr
          </CharString>
          <CharString index="496">
            -100 callsubr
            endchar
          </CharString>
          <CharString index="497">
            90 -62 hlineto
            -92 return
          </CharString>
          <CharString index="498">
            rmoveto
            160 64 97 -541 -97 337 -63 -154 378 callsubr
            return
          </CharString>
          <CharString index="499">
            408 callsubr
            -88 return
          </CharString>
          <CharString index="500">
            14 callgsubr
            188 hlineto
            return
          </CharString>
          <CharString index="501">
            -18 -8 -5 -17 vhcurveto
            -55 462 callsubr
            return
          </CharString>
          <CharString index="502">
            239 callgsubr
            21 hlineto
            18 return
          </CharString>
          <CharString index="503">
            hhcurveto
            165 hlineto
            21 14 -32 callgsubr
            -92 -68 callsubr
          </CharString>
          <CharString index="504">
            rmoveto
            -205 -427 hlineto
            -65 callgsubr
            return
          </CharString>
          <CharString index="505">
            rmoveto
            -18 callsubr
            return
          </CharString>
          <CharString index="506">
            467 callgsubr
            470 hlineto
            return
          </CharString>
          <CharString index="507">
            hlineto
            -89 6 -24 0 vhcurveto
            0 return
          </CharString>
          <CharString index="508">
            -99 hlineto
            189 callgsubr
            return
          </CharString>
          <CharString index="509">
            4 44 callsubr
            -91 140 return
          </CharString>
          <CharString index="510">
            vhcurveto
            -100 -159 rlineto
            return
          </CharString>
          <CharString index="511" raw="1">
            1ea3069f 920b  
          </CharString>
          <CharString index="512">
            74 90 -136 hlineto
            return
          </CharString>
          <CharString index="513">
            -93 callsubr
            57 vlineto
            197 callgsubr
            return
          </CharString>
          <CharString index="514">
            834 rmoveto
            -167 hlineto
            61 -81 39 -51 35 -40 40 -32 rlinecurve
            135 hlineto
            return
          </CharString>
          <CharString index="515">
            vhcurveto
            -89 -146 138 callgsubr
            return
          </CharString>
          <CharString index="516" raw="1">
            2af738f8 440a0b  
          </CharString>
          <CharString index="517">
            -172 245 636 rmoveto
            -226 -105 83 -531 143 hlineto
            endchar
          </CharString>
          <CharString index="518">
            12 callgsubr
            41 hlineto
            return
          </CharString>
          <CharString index="519">
            vhcurveto
            21 416 callsubr
            return
          </CharString>
          <CharString index="520">
            307 callgsubr
            49 hlineto
            return
          </CharString>
          <CharString index="521">
            hlineto
            448 callsubr
            return
          </CharString>
          <CharString index="522">
            vlineto
            51 callgsubr
            return
          </CharString>
          <CharString index="523">
            hlineto
            18 7 -5 -19 hvcurveto
            return
          </CharString>
          <CharString index="524">
            30 -32 92 vhcurveto
            return
          </CharString>
          <CharString index="525">
            vlineto
            -19 -7 -5 return
          </CharString>
          <CharString index="526">
            38 hlineto
            432 callgsubr
            return
          </CharString>
          <CharString index="527">
            262 327 callgsubr
            return
          </CharString>
          <CharString index="528">
            4 -8 -18 hvcurveto
            -149 140 149 42 callsubr
            52 return
          </CharString>
          <CharString index="529">
            214 callgsubr
            98 161 rlineto
            -104 277 callsubr
            return
          </CharString>
          <CharString index="530">
            139 9 callsubr
            19 vhcurveto
            32 381 callgsubr
            return
          </CharString>
          <CharString index="531">
            -97 65 -348 vlineto
            -81 39 -14 callgsubr
            return
          </CharString>
          <CharString index="532">
            -44 callgsubr
            -28 127 callgsubr
            return
          </CharString>
          <CharString index="533">
            -21 509 callsubr
            return
          </CharString>
          <CharString index="534">
            hlineto
            34 22 12 20 359 callgsubr
            81 hlineto
            100 return
          </CharString>
          <CharString index="535">
            -35 -30 -68 hvcurveto
            -61 78 39 -84 callgsubr
            6 hlineto
            18 return
          </CharString>
          <CharString index="536">
            rmoveto
            -56 vlineto
            356 callgsubr
            return
          </CharString>
          <CharString index="537">
            hlineto
            1 -97 rlineto
            return
          </CharString>
          <CharString index="538">
            vhcurveto
            -4 vlineto
            -27 return
          </CharString>
          <CharString index="539">
            hlineto
            -21 callgsubr
            return
          </CharString>
          <CharString index="540">
            hlineto
            26 8 6 callgsubr
            -141 vlineto
            -26 -8 -7 -26 vhcurveto
            -23 return
          </CharString>
          <CharString index="541">
            hlineto
            -75 callgsubr
            188 return
          </CharString>
          <CharString index="542">
            -42 callgsubr
            -141 vlineto
            -26 return
          </CharString>
          <CharString index="543">
            351 116 callsubr
            return
          </CharString>
          <CharString index="544">
            -71 hlineto
            -104 -46 -30 -74 hvcurveto
            return
          </CharString>
          <CharString index="545">
            394 383 callsubr
            return
          </CharString>
          <CharString index="546">
            -18 23 callgsubr
            return
          </CharString>
          <CharString index="547">
            vlineto
            -63 callgsubr
            return
          </CharString>
          <CharString index="548">
            77 223 callsubr
            return
          </CharString>
          <CharString index="549">
            -51 callgsubr
            -24 return
          </CharString>
          <CharString index="550">
            247 callsubr
            90 vhcurveto
            return
          </CharString>
          <CharString index="551">
            rmoveto
            -19 -55 callgsubr
            return
          </CharString>
          <CharString index="552">
            vlineto
            16 7 6 19 vhcurveto
            return
          </CharString>
          <CharString index="553">
            rmoveto
            -102 callsubr
            return
          </CharString>
          <CharString index="554">
            356 427 callgsubr
            return
          </CharString>
          <CharString index="555">
            31 -5 callgsubr
            return
          </CharString>
          <CharString index="556">
            hlineto
            -66 -43 -29 -74 hvcurveto
            -69 140 40 vlineto
            29 5 6 return
          </CharString>
          <CharString index="557">
            rmoveto
            -20 512 callsubr
            20 hvcurveto
            return
          </CharString>
          <CharString index="558">
            256 callsubr
            -139 vlineto
            -81 36 -32 100 vhcurveto
            return
          </CharString>
          <CharString index="559">
            107 callgsubr
            -177 vlineto
            -81 39 -14 callgsubr
            return
          </CharString>
          <CharString index="560">
            18 7 5 18 vhcurveto
            20 90 -62 107 callgsubr
            return
          </CharString>
          <CharString index="561">
            -91 callsubr
            212 return
          </CharString>
          <CharString index="562">
            rmoveto
            343 91 -343 hlineto
            endchar
          </CharString>
          <CharString index="563">
            -39 -32 -81 hvcurveto
            return
          </CharString>
          <CharString index="564">
            -130 156 -143 -156 -129 -98 129 return
          </CharString>
          <CharString index="565">
            -96 callsubr
            70 18 callgsubr
            return
          </CharString>
          <CharString index="566">
            hlineto
            26 5 -5 -26 hvcurveto
            -17 vlineto
            -26 -5 -5 -26 vhcurveto
            return
          </CharString>
          <CharString index="567">
            270 callsubr
            539 return
          </CharString>
          <CharString index="568">
            200 callsubr
            17 17 callgsubr
            return
          </CharString>
          <CharString index="569">
            -96 callgsubr
            99 18 callgsubr
            return
          </CharString>
          <CharString index="570">
            rmoveto
            -89 callsubr
            return
          </CharString>
          <CharString index="571">
            4 9 9 hvcurveto
            -91 43 callgsubr
          </CharString>
          <CharString index="572">
            -54 -14 hlineto
            -78 -37 -28 -63 hvcurveto
            return
          </CharString>
          <CharString index="573">
            -188 vlineto
            -81 36 -32 100 vhcurveto
            return
          </CharString>
          <CharString index="574">
            9 vhcurveto
            82 hlineto
            163 callsubr
            return
          </CharString>
          <CharString index="575">
            -51 78 rlineto
            73 90 -136 hlineto
            return
          </CharString>
          <CharString index="576">
            hhcurveto
            -24 hlineto
            -83 -34 -42 -69 hvcurveto
            return
          </CharString>
          <CharString index="577">
            106 hlineto
            67 -29 39 return
          </CharString>
          <CharString index="578">
            277 callsubr
            62 return
          </CharString>
          <CharString index="579" raw="1">
            b8271d0b   
          </CharString>
          <CharString index="580">
            249 636 rmoveto
            return
          </CharString>
          <CharString index="581">
            rmoveto
            198 callgsubr
            return
          </CharString>
          <CharString index="582" raw="1">
            f85c0afb 3507400a 0b 
          </CharString>
          <CharString index="583">
            hlineto
            -31 -149 rlineto
            121 hlineto
            31 149 rlineto
            return
          </CharString>
          <CharString index="584">
            261 668 rmoveto
            -138 -700 138 hlineto
            return
          </CharString>
          <CharString index="585">
            -75 callsubr
            -33 -99 callgsubr
            return
          </CharString>
          <CharString index="586">
            89 callgsubr
            90 hlineto
            return
          </CharString>
          <CharString index="587">
            -22 -9 -7 198 callsubr
            return
          </CharString>
          <CharString index="588">
            vlineto
            29 8 4 34 vhcurveto
            return
          </CharString>
          <CharString index="589">
            hlineto
            124 callgsubr
            return
          </CharString>
          <CharString index="590">
            hlineto
            21 5 -8 -18 hvcurveto
            return
          </CharString>
          <CharString index="591">
            vlineto
            92 26 39 67 hvcurveto
            return
          </CharString>
          <CharString index="592">
            -144 rlineto
            148 hlineto
            return
          </CharString>
          <CharString index="593">
            179 callsubr
            17 hvcurveto
            return
          </CharString>
          <CharString index="594">
            27 -3 431 callsubr
            return
          </CharString>
          <CharString index="595">
            35 42 69 hvcurveto
            return
          </CharString>
          <CharString index="596">
            hlineto
            -18 -7 5 return
          </CharString>
          <CharString index="597">
            vvcurveto
            167 callgsubr
            return
          </CharString>
          <CharString index="598">
            hlineto
            472 callgsubr
            412 130 rmoveto
            return
          </CharString>
          <CharString index="599">
            512 636 rmoveto
            -532 -97 532 hlineto
            return
          </CharString>
          <CharString index="600">
            504 callsubr
            516 callgsubr
            return
          </CharString>
          <CharString index="601">
            -364 446 callsubr
            338 84 return
          </CharString>
          <CharString index="602">
            hlineto
            28 16 9 16 7 hvcurveto
            -17 22 34 -8 return
          </CharString>
          <CharString index="603">
            rmoveto
            -204 -208 -89 470 callsubr
            return
          </CharString>
          <CharString index="604">
            295 636 rmoveto
            -315 -97 315 hlineto
            return
          </CharString>
          <CharString index="605">
            -99 callgsubr
            28 return
          </CharString>
          <CharString index="606">
            13 vlineto
            93 26 38 67 hvcurveto
            return
          </CharString>
          <CharString index="607">
            hlineto
            7 9 4 11 15 vvcurveto
            return
          </CharString>
          <CharString index="608" raw="1">
            aef7c71d 0b  
          </CharString>
          <CharString index="609">
            335 callsubr
            32 return
          </CharString>
          <CharString index="610">
            hlineto
            350 callsubr
            return
          </CharString>
          <CharString index="611">
            378 callsubr
            -52 return
          </CharString>
          <CharString index="612">
            429 910 636 rmoveto
            return
          </CharString>
          <CharString index="613">
            -26 -7 -7 -26 vhcurveto
            return
          </CharString>
          <CharString index="614">
            rmoveto
            -73 66 73 vlineto
            return
          </CharString>
          <CharString index="615" raw="1">
            ed790679 0b  
          </CharString>
          <CharString index="616">
            -8 -44 callgsubr
            return
          </CharString>
          <CharString index="617">
            116 vlineto
            endchar
          </CharString>
          <CharString index="618">
            -197 36 vlineto
            64 131 rlineto
            66 vlineto
            return
          </CharString>
          <CharString index="619">
            -46 callsubr
            -139 489 callsubr
            return
          </CharString>
          <CharString index="620">
            74 90 -136 107 callgsubr
            return
          </CharString>
          <CharString index="621">
            rmoveto
            141 117 -141 hlineto
            endchar
          </CharString>
          <CharString index="622">
            8 -6 -21 hvcurveto
            return
          </CharString>
          <CharString index="623">
            -97 62 -348 return
          </CharString>
          <CharString index="624" raw="1">
            f71a06e6 0b  
          </CharString>
          <CharString index="625">
            -81 129 rlineto
            return
          </CharString>
        <CharString name=".notdef">
          49 0 vmoveto
          502 701 -502 hlineto
          51 -49 rmoveto
          400 -603 -400 hlineto
          200 253 rmoveto
          105 -209 rlineto
          60 hlineto
          -135 254 135 261 rlineto
          -60 hlineto
          -100 -206 rlineto
          -4 hlineto
          -105 206 rlineto
          -60 hlineto
          134 -255 -134 -260 rlineto
          60 hlineto
          100 209 rlineto
          endchar
        </CharString>
        <CharString name="A">
          22 188 219 -53 callgsubr
        </CharString>
        <CharString name="AE">
          236 229 230 rmoveto
          109 297 rlineto
          -297 vlineto
          136 -125 rmoveto
          166 167 105 -167 155 196 105 -419 vlineto
          -247 -636 rlineto
          141 hlineto
          47 128 rlineto
          146 -128 340 105 hlineto
          endchar
        </CharString>
        <CharString name="Aacute">
          22 421 811 29 callgsubr
          -110 -449 -53 callgsubr
        </CharString>
        <CharString name="Abreve">
          22 290 668 rmoveto
          45 callsubr
          32 -125 87 callsubr
          -2 -449 -53 callgsubr
        </CharString>
        <CharString name="Acircumflex">
          22 240 742 24 callsubr
          1 -449 -53 callgsubr
        </CharString>
        <CharString name="Adieresis">
          22 417 785 49 callsubr
          -8 -450 -53 callgsubr
        </CharString>
        <CharString name="Agrave">
          22 289 668 120 callsubr
          11 -449 -53 callgsubr
        </CharString>
        <CharString name="Amacron">
          22 411 760 301 callsubr
          -223 -450 -53 callgsubr
        </CharString>
        <CharString name="Aogonek">
          22 188 219 rmoveto
          52 269 52 -269 rlineto
          119 -390 rmoveto
          99 callsubr
          117 -4 hlineto
          -145 622 rlineto
          -182 hlineto
          -144 -636 rlineto
          141 hlineto
          22 115 rlineto
          145 hlineto
          22 -115 rlineto
          61 -19 -6 hlineto
          410 callgsubr
        </CharString>
        <CharString name="Aring">
          22 200 763 6 callsubr
          -13 -449 -53 callgsubr
        </CharString>
        <CharString name="Atilde">
          22 170 694 rmoveto
          223 callgsubr
          -8 callgsubr
          vlineto
          18 -450 -53 callgsubr
        </CharString>
        <CharString name="B">
          15 45 636 rmoveto
          -636 264 vlineto
          45 callsubr
          124 vlineto
          44 -10 29 -35 13 vhcurveto
          35 15 10 33 45 vvcurveto
          112 226 callgsubr
          -14 -513 89 callsubr
          -82 173 82 hlineto
          20 308 callgsubr
          147 vmoveto
          30 callsubr
          -82 169 82 36 callgsubr
          endchar
        </CharString>
        <CharString name="C">
          -11 421 413 -20 callgsubr
        </CharString>
        <CharString name="CR">
          -461 endchar
        </CharString>
        <CharString name="Cacute">
          -11 407 811 29 callgsubr
          137 -255 -20 callgsubr
        </CharString>
        <CharString name="Ccaron">
          -11 296 668 -30 callgsubr
          259 -255 -20 callgsubr
        </CharString>
        <CharString name="Ccedilla">
          -11 164 252 callsubr
          257 461 -20 callgsubr
        </CharString>
        <CharString name="D">
          24 301 123 244 callsubr
        </CharString>
        <CharString name="Dcaron">
          24 305 668 -30 callgsubr
          130 -545 244 callsubr
        </CharString>
        <CharString name="Dcroat">
          29 301 130 rmoveto
          -18 -8 -7 -19 vhcurveto
          -79 168 62 98 -62 160 377 callgsubr
          130 rmoveto
          -265 -54 -98 54 -273 265 vlineto
          165 callgsubr
        </CharString>
        <CharString name="E">
          -52 188 105 rmoveto
          166 69 callsubr
          vlineto
          endchar
        </CharString>
        <CharString name="Eacute">
          -52 392 811 29 callgsubr
          -81 -397 rmoveto
          69 callsubr
          -204 hlineto
          endchar
        </CharString>
        <CharString name="Ecaron">
          -52 285 668 -30 callgsubr
          37 -397 rmoveto
          69 callsubr
          -204 hlineto
          endchar
        </CharString>
        <CharString name="Ecircumflex">
          -52 217 742 24 callsubr
          24 -397 rmoveto
          69 callsubr
          -204 hlineto
          endchar
        </CharString>
        <CharString name="Edieresis">
          -16 391 785 49 callsubr
          18 -564 rmoveto
          166 69 callsubr
          vlineto
          endchar
        </CharString>
        <CharString name="Edotaccent">
          -52 292 785 411 callgsubr
          -104 -563 rmoveto
          166 69 callsubr
          vlineto
          endchar
        </CharString>
        <CharString name="Egrave">
          -52 272 668 120 callsubr
          28 -563 rmoveto
          166 69 callsubr
          vlineto
          endchar
        </CharString>
        <CharString name="Emacron">
          -52 384 765 301 callsubr
          -196 -569 rmoveto
          166 69 callsubr
          vlineto
          endchar
        </CharString>
        <CharString name="Eogonek">
          -52 324 -171 rmoveto
          99 callsubr
          117 -1 91 -204 166 167 105 -167 155 196 105 -339 -636 264 -19 -6 hlineto
          410 callgsubr
        </CharString>
        <CharString name="Eth">
          22 301 123 rmoveto
          -18 -8 -7 -19 vhcurveto
          -79 175 62 98 -62 167 479 callgsubr
          -265 -54 -98 54 -273 265 vlineto
          165 callgsubr
        </CharString>
        <CharString name="Euro">
          11 442 413 rmoveto
          113 vlineto
          68 -36 42 -90 vhcurveto
          -128 hlineto
          246 callsubr
          -103 -43 -85 43 -40 -43 -84 43 -104 vlineto
          -68 36 -42 91 vhcurveto
          128 hlineto
          90 36 42 68 hvcurveto
          110 -143 -97 vlineto
          -19 431 callgsubr
          -41 hlineto
          -20 -7 6 19 hvcurveto
          91 70 84 -70 40 70 85 -70 90 411 callsubr
          20 7 -7 -18 hvcurveto
          -100 vlineto
          endchar
        </CharString>
        <CharString name="F">
          -62 387 531 rmoveto
          105 -342 -636 143 257 167 99 -167 175 vlineto
          endchar
        </CharString>
        <CharString name="G">
          -5 421 430 34 callgsubr
        </CharString>
        <CharString name="Gbreve">
          -5 280 668 rmoveto
          45 callsubr
          32 -125 87 callsubr
          241 -238 34 callgsubr
        </CharString>
        <CharString name="H">
          39 314 636 rmoveto
          -269 -128 269 -141 -636 141 262 128 -262 141 636 vlineto
          endchar
        </CharString>
        <CharString name="I">
          187 callsubr
          endchar
        </CharString>
        <CharString name="Iacute">
          187 callsubr
          -129 32 148 callgsubr
          endchar
        </CharString>
        <CharString name="Icircumflex">
          187 callsubr
          -257 32 249 callsubr
        </CharString>
        <CharString name="Idieresis">
          -223 -58 669 182 callsubr
          -115 -149 318 callgsubr
          endchar
        </CharString>
        <CharString name="Idotaccent">
          187 callsubr
          -141 37 514 callsubr
        </CharString>
        <CharString name="Igrave">
          187 callsubr
          -107 175 348 callgsubr
        </CharString>
        <CharString name="Imacron">
          187 callsubr
          -242 38 455 callsubr
        </CharString>
        <CharString name="Iogonek">
          -223 122 -171 rmoveto
          99 callsubr
          117 -1 622 -142 -636 59 -19 -6 hlineto
          410 callgsubr
        </CharString>
        <CharString name="J">
          -51 12 238 rmoveto
          -127 224 callsubr
          105 351 callsubr
          525 -143 -506 444 callgsubr
          -17 17 callsubr
          108 vlineto
          endchar
        </CharString>
        <CharString name="K">
          14 45 hmoveto
          142 636 -142 hlineto
          422 hmoveto
          368 callgsubr
        </CharString>
        <CharString name="L">
          -90 187 105 299 callgsubr
        </CharString>
        <CharString name="Lacute">
          -90 298 811 29 callgsubr
          12 -563 299 callgsubr
        </CharString>
        <CharString name="Lcaron">
          -90 182 670 -30 callgsubr
          139 -565 299 callgsubr
        </CharString>
        <CharString name="Lslash">
          -74 194 105 rmoveto
          206 vlineto
          107 51 rlineto
          98 vlineto
          -107 -51 rlineto
          227 -142 -295 vlineto
          -85 -40 rlineto
          -98 vlineto
          85 40 rlineto
          -243 325 105 vlineto
          endchar
        </CharString>
        <CharString name="M">
          151 359 138 rmoveto
          82 289 rlineto
          -427 126 636 -156 vlineto
          -105 -360 -105 360 rlineto
          -156 -636 126 426 hlineto
          82 -288 rlineto
          endchar
        </CharString>
        <CharString name="N">
          151 callgsubr
          endchar
        </CharString>
        <CharString name="NULL">
          -461 endchar
        </CharString>
        <CharString name="Nacute">
          25 180 668 148 callgsubr
          40 295 callgsubr
        </CharString>
        <CharString name="Ncaron">
          25 176 668 181 callsubr
          254 295 callgsubr
        </CharString>
        <CharString name="Ntilde">
          151 callgsubr
          -128 33 rmoveto
          -8 callgsubr
          25 vlineto
          223 callgsubr
          endchar
        </CharString>
        <CharString name="O">
          8 285 130 -85 callsubr
        </CharString>
        <CharString name="OE">
          212 305 123 89 callsubr
          -48 hlineto
          -19 -8 7 18 hvcurveto
          390 vlineto
          18 8 7 19 vhcurveto
          48 36 callgsubr
          132 -415 rmoveto
          176 167 99 -167 165 196 98 -301 -20 vlineto
          13 -16 -22 7 -29 hhcurveto
          -78 hlineto
          -91 -35 -42 -68 hvcurveto
          -415 224 callsubr
          78 hlineto
          29 22 7 12 16 hvcurveto
          -19 310 98 vlineto
          endchar
        </CharString>
        <CharString name="Oacute">
          8 414 811 29 callgsubr
          -6 -538 -85 callsubr
        </CharString>
        <CharString name="Ocircumflex">
          8 233 742 24 callsubr
          105 -538 -85 callsubr
        </CharString>
        <CharString name="Odieresis">
          -3 412 785 49 callsubr
          94 -539 -85 callsubr
        </CharString>
        <CharString name="Ograve">
          8 285 668 120 callsubr
          112 -538 -85 callsubr
        </CharString>
        <CharString name="Ohungarumlaut">
          -3 364 668 126 callsubr
          84 -538 -85 callsubr
        </CharString>
        <CharString name="Omacron">
          8 406 760 301 callsubr
          -121 -539 -85 callsubr
        </CharString>
        <CharString name="Oslash">
          11 294 122 89 callsubr
          -62 17 callsubr
          7 vlineto
          116 234 rlineto
          -116 151 rmoveto
          91 callgsubr
          62 36 callgsubr
          -17 vlineto
          -116 -234 rlineto
          261 393 rmoveto
          -66 hlineto
          -13 -27 rlineto
          5 -16 -19 2 -22 hhcurveto
          -134 hlineto
          246 callsubr
          -415 vlineto
          -31 7 -26 17 -18 vhcurveto
          -28 -56 rlineto
          66 hlineto
          13 26 rlineto
          -4 15 17 -2 20 hhcurveto
          234 callsubr
          415 vlineto
          29 -6 23 -14 19 vhcurveto
          endchar
        </CharString>
        <CharString name="Otilde">
          8 171 694 rmoveto
          223 callgsubr
          -8 callgsubr
          vlineto
          114 -539 -85 callsubr
        </CharString>
        <CharString name="P">
          -5 290 352 rmoveto
          344 callgsubr
          -77 204 441 callsubr
          -245 130 471 callgsubr
          222 120 vlineto
          406 callgsubr
          193 483 callgsubr
          endchar
        </CharString>
        <CharString name="Q">
          8 184 506 rmoveto
          91 callgsubr
          48 223 callsubr
          -376 vlineto
          344 callgsubr
          -48 17 callsubr
          284 -207 rmoveto
          -83 95 rlineto
          30 19 13 32 42 vvcurveto
          415 483 callgsubr
          -134 hlineto
          246 callsubr
          -415 247 callsubr
          91 vhcurveto
          75 hlineto
          66 -77 rlineto
          endchar
        </CharString>
        <CharString name="R">
          8 187 531 61 callsubr
        </CharString>
        <CharString name="Racute">
          8 403 811 29 callgsubr
          -93 -137 61 callsubr
        </CharString>
        <CharString name="Rcaron">
          8 299 668 -30 callgsubr
          22 -137 61 callsubr
        </CharString>
        <CharString name="S">
          -19 266 130 76 callgsubr
        </CharString>
        <CharString name="Sacute">
          -19 174 668 148 callgsubr
          1 74 callsubr
        </CharString>
        <CharString name="Scaron">
          -19 154 668 181 callsubr
          231 74 callsubr
        </CharString>
        <CharString name="T">
          -75 381 636 232 callsubr
        </CharString>
        <CharString name="Tcaron">
          -75 258 668 -30 callgsubr
          257 -32 232 callsubr
        </CharString>
        <CharString name="Thorn">
          16 287 244 rmoveto
          364 callsubr
          -69 196 69 36 callgsubr
          -96 126 rmoveto
          119 -143 -636 143 118 112 vlineto
          45 callsubr
          178 390 callgsubr
        </CharString>
        <CharString name="U">
          14 288 636 rmoveto
          -506 vlineto
          -33 callsubr
          vlineto
          endchar
        </CharString>
        <CharString name="Uacute">
          14 411 811 29 callgsubr
          -32 vmoveto
          -506 vlineto
          -33 callsubr
          vlineto
          endchar
        </CharString>
        <CharString name="Ucircumflex">
          14 237 742 24 callsubr
          104 -32 rmoveto
          -506 vlineto
          -33 callsubr
          vlineto
          endchar
        </CharString>
        <CharString name="Udieresis">
          14 414 785 49 callsubr
          95 -33 rmoveto
          -506 vlineto
          -33 callsubr
          vlineto
          endchar
        </CharString>
        <CharString name="Ugrave">
          14 292 668 120 callsubr
          108 -32 rmoveto
          -506 vlineto
          -33 callsubr
          vlineto
          endchar
        </CharString>
        <CharString name="Uhungarumlaut">
          -2 358 668 126 callsubr
          93 -538 rmoveto
          -33 callsubr
          -143 vlineto
          endchar
        </CharString>
        <CharString name="Umacron">
          14 409 760 301 callsubr
          -121 -33 rmoveto
          -506 vlineto
          -33 callsubr
          vlineto
          endchar
        </CharString>
        <CharString name="Uogonek">
          14 288 636 rmoveto
          -506 444 callgsubr
          -48 hlineto
          -19 -7 7 18 hvcurveto
          506 -143 -525 224 callsubr
          35 -19 -6 hlineto
          73 callgsubr
          -87 hlineto
          99 callsubr
          103 15 12 callsubr
          525 vlineto
          endchar
        </CharString>
        <CharString name="Uring">
          14 197 763 6 callsubr
          90 -32 rmoveto
          -506 vlineto
          -33 callsubr
          vlineto
          endchar
        </CharString>
        <CharString name="V">
          8 314 636 rmoveto
          -80 -472 -79 472 rlineto
          -149 hlineto
          141 -636 rlineto
          175 hlineto
          140 636 rlineto
          endchar
        </CharString>
        <CharString name="W">
          289 598 636 rmoveto
          -67 -475 -84 475 rlineto
          -145 hlineto
          -84 -475 -60 475 rlineto
          -148 hlineto
          123 -636 rlineto
          171 hlineto
          71 416 71 -416 rlineto
          171 hlineto
          123 636 rlineto
          endchar
        </CharString>
        <CharString name="X">
          4 309 324 rmoveto
          135 312 rlineto
          -154 hlineto
          -61 -187 -61 187 rlineto
          -161 hlineto
          142 -312 -147 -324 rlineto
          152 hlineto
          75 202 74 -202 rlineto
          160 hlineto
          endchar
        </CharString>
        <CharString name="Y">
          -2 458 636 317 callsubr
        </CharString>
        <CharString name="Yacute">
          -2 405 811 29 callgsubr
          176 -32 317 callsubr
        </CharString>
        <CharString name="Ydieresis">
          -15 401 797 49 callsubr
          278 -45 317 callsubr
        </CharString>
        <CharString name="Z">
          -54 391 636 338 callsubr
        </CharString>
        <CharString name="Zacute">
          -54 385 811 29 callgsubr
          129 324 callgsubr
        </CharString>
        <CharString name="Zcaron">
          -54 283 668 -30 callgsubr
          -121 -137 rmoveto
          182 callgsubr
          105 -363 vlineto
          endchar
        </CharString>
        <CharString name="Zdotaccent">
          -54 285 785 411 callgsubr
          106 324 callgsubr
        </CharString>
        <CharString name="a">
          -27 200 105 -56 callgsubr
          -49 139 490 callgsubr
        </CharString>
        <CharString name="aacute">
          -27 400 670 29 callgsubr
          -77 -422 -22 callsubr
          endchar
        </CharString>
        <CharString name="abreve">
          -27 200 105 -22 callsubr
          28 175 rmoveto
          87 callsubr
          100 12 callsubr
          32 vlineto
          endchar
        </CharString>
        <CharString name="acircumflex">
          -27 219 601 24 callsubr
          34 -422 -22 callsubr
          endchar
        </CharString>
        <CharString name="acute">
          9 117 527 148 callgsubr
          endchar
        </CharString>
        <CharString name="adieresis">
          -27 179 658 rmoveto
          -133 -116 133 hlineto
          21 -437 -22 callsubr
          12 163 rmoveto
          -116 133 510 callsubr
        </CharString>
        <CharString name="ae">
          207 205 105 rmoveto
          -19 callgsubr
          42 vlineto
          80 33 rlineto
          -70 vlineto
          -21 -1 -9 -9 -20 hhcurveto
          233 288 rmoveto
          19 8 -6 -19 hvcurveto
          -75 -94 75 447 callgsubr
          199 -187 rmoveto
          16 4 162 vlineto
          69 226 callsubr
          -68 hlineto
          395 callgsubr
          -74 140 55 436 callgsubr
          9 -9 -21 1 hvcurveto
          -64 vlineto
          -220 -90 rlineto
          -95 220 callsubr
          vlineto
          endchar
        </CharString>
        <CharString name="agrave">
          -27 300 527 120 callsubr
          12 -422 -56 callgsubr
          -49 139 490 callgsubr
        </CharString>
        <CharString name="amacron">
          -27 387 645 301 callsubr
          -187 -449 -56 callgsubr
          -49 139 490 callgsubr
        </CharString>
        <CharString name="ampersand">
          102 196 98 rmoveto
          -19 callgsubr
          55 vlineto
          25 8 10 17 10 vhcurveto
          20 12 125 -137 rlineto
          -135 417 rmoveto
          19 7 6 19 vhcurveto
          32 380 callgsubr
          -69 vlineto
          -32 -18 -12 -37 -23 vhcurveto
          -21 23 -9 14 24 vvcurveto
          402 -476 rmoveto
          -82 92 rlineto
          7 16 4 18 21 vvcurveto
          132 -113 -73 vlineto
          -110 123 19 12 rlineto
          61 38 33 29 76 vvcurveto
          78 vlineto
          68 -34 42 -91 vhcurveto
          -109 hlineto
          246 callsubr
          -79 vlineto
          -44 26 -33 46 -51 vhcurveto
          -22 -13 rlineto
          -60 -36 -21 -24 -60 vvcurveto
          -75 247 callsubr
          91 vhcurveto
          243 hlineto
          9 8 0 1 8 hvcurveto
          34 -37 rlineto
          endchar
        </CharString>
        <CharString name="aogonek">
          -27 200 105 -48 callsubr
          101 -276 rmoveto
          99 callsubr
          117 -1 481 -137 -56 hlineto
          60 callgsubr
          56 373 callsubr
        </CharString>
        <CharString name="approxequal">
          75 347 350 rmoveto
          55 hlineto
          73 28 31 62 hvcurveto
          64 -128 -32 433 callgsubr
          -30 -63 hvcurveto
          -63 128 31 vlineto
          23 5 10 23 vhcurveto
          55 24 -65 79 hhcurveto
          -188 vmoveto
          55 hlineto
          73 28 31 62 hvcurveto
          63 -128 -31 433 callgsubr
          -31 -62 hvcurveto
          -64 128 32 vlineto
          22 5 11 23 vhcurveto
          55 24 -65 79 hhcurveto
          endchar
        </CharString>
        <CharString name="aring">
          -27 178 624 6 callsubr
          21 -424 -56 callgsubr
          -49 139 490 callgsubr
        </CharString>
        <CharString name="asciicircum">
          165 204 670 rmoveto
          -126 -376 rlineto
          145 hlineto
          74 255 75 -255 rlineto
          145 hlineto
          -126 376 rlineto
          endchar
        </CharString>
        <CharString name="asciitilde">
          184 404 208 rmoveto
          55 hlineto
          73 28 30 62 hvcurveto
          78 -128 -45 vlineto
          -23 -4 -10 -23 vhcurveto
          -49 -31 78 -86 hhcurveto
          -55 hlineto
          -73 -28 -30 -63 hvcurveto
          -77 128 46 vlineto
          22 5 10 23 vhcurveto
          55 31 -78 79 hhcurveto
          endchar
        </CharString>
        <CharString name="asterisk">
          -97 347 478 rmoveto
          -32 101 -23 -7 -28 -9 -21 -11 -17 -12 rlinecurve
          5 20 4 24 28 vvcurveto
          24 -106 -23 vlineto
          -29 4 -25 6 -19 vhcurveto
          -17 11 -22 11 -27 9 -23 7 rcurveline
          -33 -100 22 -7 28 -10 25 -3 20 -1 rlinecurve
          -16 -13 -17 -17 -17 -23 -15 -20 rcurveline
          86 -62 14 19 17 24 12 22 7 19 rlinecurve
          7 -19 10 -22 17 -23 15 -20 rcurveline
          86 63 -14 19 -17 23 -18 18 -16 12 rlinecurve
          20 1 24 4 27 9 rrcurveto
          endchar
        </CharString>
        <CharString name="at">
          338 242 331 rmoveto
          -148 vlineto
          -63 32 -40 76 vhcurveto
          20 hlineto
          44 27 20 38 7 hvcurveto
          -58 189 vlineto
          82 34 42 69 hvcurveto
          300 vlineto
          69 -33 42 -82 vhcurveto
          -468 hlineto
          -82 -34 -42 -69 hvcurveto
          -472 vlineto
          -68 34 -42 82 vhcurveto
          391 99 -355 hlineto
          -20 -7 6 18 hvcurveto
          446 12 callgsubr
          398 36 callgsubr
          -282 vlineto
          -19 431 callgsubr
          -44 263 -115 -51 hlineto
          33 -9 -25 18 -41 hhcurveto
          -20 hlineto
          -76 -32 -39 -64 hvcurveto
          123 -11 rmoveto
          17 6 6 18 vhcurveto
          27 hlineto
          18 9 -8 -22 hvcurveto
          -112 vlineto
          -21 -9 -8 -18 vhcurveto
          -27 hlineto
          -18 -6 5 18 hvcurveto
          endchar
        </CharString>
        <CharString name="atilde">
          -27 153 558 rmoveto
          223 callgsubr
          -8 callgsubr
          vlineto
          47 -428 -56 callgsubr
          -49 139 490 callgsubr
        </CharString>
        <CharString name="b">
          -27 261 361 callgsubr
          -24 hlineto
          -19 -10 9 23 hvcurveto
          221 vlineto
          23 10 9 19 vhcurveto
          24 380 callgsubr
          -2 130 464 callgsubr
          137 56 vlineto
          -36 9 27 -20 44 hhcurveto
          25 hlineto
          82 488 callsubr
          274 vlineto
          68 -35 42 -82 vhcurveto
          endchar
        </CharString>
        <CharString name="backslash">
          -58 -1 701 rmoveto
          294 -784 rlineto
          122 hlineto
          -294 784 rlineto
          endchar
        </CharString>
        <CharString name="bar">
          -221 52 799 rmoveto
          -964 129 964 vlineto
          endchar
        </CharString>
        <CharString name="braceleft">
          -151 240 665 rmoveto
          17 8 8 19 vhcurveto
          33 98 -80 hlineto
          -91 -32 -51 -66 hvcurveto
          -215 vlineto
          -64 -21 -28 -53 vhcurveto
          -10 -98 10 hlineto
          53 21 -29 -62 hvcurveto
          -217 vlineto
          -67 32 -50 91 vhcurveto
          80 98 -33 hlineto
          -19 -8 8 17 hvcurveto
          236 vlineto
          70 -30 41 -48 4 vhcurveto
          45 9 33 36 79 vvcurveto
          endchar
        </CharString>
        <CharString name="braceright">
          -151 70 439 rmoveto
          -79 32 -36 45 -9 vhcurveto
          -48 -4 -29 -41 -70 vvcurveto
          -236 vlineto
          -17 -8 -8 -20 vhcurveto
          -33 -98 80 hlineto
          92 32 50 67 hvcurveto
          217 vlineto
          62 20 29 53 vhcurveto
          11 98 -11 hlineto
          -53 -20 28 64 hvcurveto
          215 vlineto
          66 -32 51 -92 vhcurveto
          -80 -98 33 hlineto
          20 8 -8 -17 hvcurveto
          endchar
        </CharString>
        <CharString name="bracketleft">
          -146 285 683 rmoveto
          105 -238 -948 238 105 -95 738 vlineto
          endchar
        </CharString>
        <CharString name="bracketright">
          -146 261 788 rmoveto
          -238 -105 95 -738 -95 -105 238 hlineto
          endchar
        </CharString>
        <CharString name="breve">
          9 287 670 rmoveto
          87 callsubr
          100 12 callsubr
          32 vlineto
          endchar
        </CharString>
        <CharString name="brokenbar">
          -221 45 258 rmoveto
          -353 143 353 vlineto
          119 vmoveto
          352 -143 -352 vlineto
          endchar
        </CharString>
        <CharString name="bullet">
          -65 56 321 rmoveto
          -78 64 -64 78 78 64 64 78 78 -64 64 -78 -78 -64 -64 -78 vhcurveto
          endchar
        </CharString>
        <CharString name="c">
          -48 389 317 rmoveto
          67 vlineto
          69 226 callsubr
          -102 hlineto
          14 callsubr
          vlineto
          endchar
        </CharString>
        <CharString name="cacute">
          -48 391 670 29 callgsubr
          -108 -32 rmoveto
          14 callsubr
          136 67 vlineto
          69 -36 510 callgsubr
        </CharString>
        <CharString name="caron">
          9 168 527 181 callsubr
          endchar
        </CharString>
        <CharString name="ccaron">
          -48 275 527 -30 callgsubr
          19 -32 rmoveto
          14 callsubr
          136 67 vlineto
          69 -36 510 callgsubr
        </CharString>
        <CharString name="ccedilla">
          -48 150 252 callsubr
          239 365 rmoveto
          67 vlineto
          69 226 callsubr
          -102 hlineto
          14 callsubr
          vlineto
          endchar
        </CharString>
        <CharString name="cedilla">
          9 202 252 callsubr
          endchar
        </CharString>
        <CharString name="cent">
          -48 389 317 rmoveto
          67 vlineto
          64 -31 41 -77 5 vhcurveto
          80 -135 -79 vlineto
          -81 -5 -32 -41 -65 vvcurveto
          -273 vlineto
          -65 32 -41 81 -5 vhcurveto
          -79 135 80 vlineto
          77 5 31 41 64 vvcurveto
          67 -136 -48 444 callgsubr
          -26 hlineto
          215 callgsubr
          18 7 7 20 vhcurveto
          26 36 callgsubr
          -48 vlineto
          endchar
        </CharString>
        <CharString name="circumflex">
          9 49 527 249 callsubr
        </CharString>
        <CharString name="colon">
          -242 37 383 rmoveto
          -271 145 271 vlineto
          endchar
        </CharString>
        <CharString name="comma">
          311 callsubr
          endchar
        </CharString>
        <CharString name="commaaccent">
          9 164 -48 206 callsubr
        </CharString>
        <CharString name="copyright">
          284 715 339 rmoveto
          182 -56 115 -187 vhcurveto
          -194 hlineto
          -186 -56 -115 -182 hvcurveto
          -45 vlineto
          -182 56 -112 186 vhcurveto
          194 hlineto
          187 56 112 182 hvcurveto
          -413 -207 rmoveto
          -110 -45 48 146 hvcurveto
          71 vlineto
          147 45 50 110 vhcurveto
          147 hlineto
          109 46 -50 -147 hvcurveto
          -71 vlineto
          -146 -46 -48 -109 vhcurveto
          -38 167 rmoveto
          -15 -6 -5 -15 vhcurveto
          -28 hlineto
          -16 -5 5 15 hvcurveto
          133 vlineto
          14 5 5 16 vhcurveto
          28 hlineto
          15 6 -5 -14 hvcurveto
          -31 103 48 vlineto
          52 -28 31 -67 vhcurveto
          -86 hlineto
          -68 -27 -31 -52 hvcurveto
          -167 vlineto
          -52 27 -31 68 vhcurveto
          86 hlineto
          67 28 31 52 hvcurveto
          48 -103 vlineto
          endchar
        </CharString>
        <CharString name="currency">
          92 258 190 rmoveto
          -44 -19 7 55 hvcurveto
          94 vlineto
          55 19 9 44 vhcurveto
          29 hlineto
          44 19 -9 -55 hvcurveto
          -94 vlineto
          -55 -19 -7 -44 vhcurveto
          179 160 rmoveto
          34 -4 30 -11 23 vhcurveto
          48 48 -85 86 -68 -68 rlineto
          -10 -10 1 -11 hhcurveto
          -83 hlineto
          -13 -12 -1 -1 -11 hvcurveto
          -70 69 -84 -86 52 -52 rlineto
          -9 -23 -4 -28 -32 vvcurveto
          -101 vlineto
          -27 3 -24 6 -21 vhcurveto
          -48 -49 84 -85 58 57 rlineto
          -3 14 16 -1 18 hhcurveto
          83 hlineto
          16 14 1 2 13 hvcurveto
          56 -56 85 85 -44 44 rlineto
          8 22 3 26 29 vvcurveto
          endchar
        </CharString>
        <CharString name="d">
          -27 278 callsubr
          564 rmoveto
          -223 vlineto
          274 callgsubr
          vlineto
          endchar
        </CharString>
        <CharString name="dagger">
          -42 411 480 rmoveto
          457 callsubr
          -491 143 491 130 hlineto
          endchar
        </CharString>
        <CharString name="daggerdbl">
          -15 424 382 rmoveto
          98 457 callsubr
          -271 -129 -98 129 -156 143 156 130 98 -130 271 vlineto
          endchar
        </CharString>
        <CharString name="dcaron">
          9 278 callsubr
          341 rmoveto
          274 callgsubr
          -139 vlineto
          181 hmoveto
          511 callsubr
          endchar
        </CharString>
        <CharString name="dcroat">
          -22 205 105 -48 callsubr
          218 511 rmoveto
          -49 53 -139 -53 -68 -70 68 -100 hlineto
          32 -10 -27 17 -42 469 callsubr
          -273 421 callgsubr
          546 49 vlineto
          endchar
        </CharString>
        <CharString name="degree">
          -15 398 526 rmoveto
          68 -32 42 -90 vhcurveto
          -108 hlineto
          -91 -32 -42 -68 hvcurveto
          -98 vlineto
          -68 32 -42 91 vhcurveto
          108 hlineto
          90 32 42 68 hvcurveto
          -129 5 89 callsubr
          -40 17 callsubr
          88 12 callgsubr
          40 36 callgsubr
          endchar
        </CharString>
        <CharString name="dieresis">
          9 58 542 182 callsubr
          endchar
        </CharString>
        <CharString name="divide">
          26 25 264 502 callgsubr
          151 153 rmoveto
          -104 135 104 vlineto
          -135 -308 rmoveto
          -104 135 104 vlineto
          endchar
        </CharString>
        <CharString name="dollar">
          -19 203 370 rmoveto
          -20 -7 6 18 hvcurveto
          112 12 callgsubr
          34 36 callgsubr
          -63 143 83 vlineto
          66 -33 42 -86 2 vhcurveto
          82 -135 -82 vlineto
          -87 -2 -33 -42 -66 vvcurveto
          -145 vlineto
          -68 30 -44 88 vhcurveto
          88 hlineto
          20 308 callgsubr
          -115 444 callgsubr
          -34 17 callsubr
          63 -143 -82 vlineto
          -67 34 -41 84 -3 vhcurveto
          -81 135 81 vlineto
          87 2 34 41 68 vvcurveto
          150 vlineto
          68 -31 41 -89 vhcurveto
          endchar
        </CharString>
        <CharString name="dotaccent">
          9 165 540 514 callsubr
        </CharString>
        <CharString name="dotlessi">
          175 callsubr
          endchar
        </CharString>
        <CharString name="dvBH_N">
          437 615 287 callgsubr
          50 -178 hlineto
          -13 callgsubr
          -353 hmoveto
          371 callsubr
          139 96 rmoveto
          120 vlineto
          -49 callgsubr
          -105 -99 256 callsubr
          -125 41 callsubr
          127 74 -127 vlineto
          343 callgsubr
          88 97 -321 vlineto
          -73 -34 -20 -42 -11 hvcurveto
          -4 222 rmoveto
          -97 443 97 vlineto
          endchar
        </CharString>
        <CharString name="dvB_N">
          298 476 147 callsubr
          -299 150 -34 callsubr
          159 72 rmoveto
          36 callsubr
          -39 callgsubr
          188 88 97 -321 415 callsubr
          -356 516 callgsubr
          799 97 vlineto
          endchar
        </CharString>
        <CharString name="dvCH_N">
          180 355 -292 rmoveto
          20 callgsubr
          -121 144 rlineto
          -119 767 -94 callsubr
          -395 97 rmoveto
          -97 66 vlineto
          -45 callgsubr
          195 -67 -112 211 callgsubr
          86 -113 105 268 hlineto
          83 4 39 32 77 vvcurveto
          192 callgsubr
          155 97 vlineto
          endchar
        </CharString>
        <CharString name="dvC_N">
          259 443 287 callgsubr
          50 -178 hlineto
          -13 callgsubr
          -140 8 rmoveto
          -65 callgsubr
          -53 -99 callgsubr
          152 18 callgsubr
          28 97 -252 -97 73 115 callgsubr
          117 495 callsubr
          49 hhcurveto
          81 hlineto
          100 36 -55 callsubr
          188 96 97 -328 415 callsubr
          -324 516 callgsubr
          774 97 vlineto
          endchar
        </CharString>
        <CharString name="dvDDH_DDHA">
          14 398 336 callgsubr
          97 97 -515 -97 279 -63 -93 378 callsubr
          -230 vlineto
          -40 16 -17 -4 callsubr
          -4 -16 -17 -35 vvcurveto
          -160 vlineto
          -81 36 -32 100 vhcurveto
          122 hlineto
          100 36 -55 callsubr
          34 241 callgsubr
          -78 -97 48 306 callsubr
          -14 462 callgsubr
          172 -84 callgsubr
          93 hlineto
          100 36 -55 callsubr
          36 vlineto
          81 -36 31 -100 vhcurveto
          -78 -96 48 306 callsubr
          -16 462 callgsubr
          158 -37 callgsubr
          endchar
        </CharString>
        <CharString name="dvDD_GA">
          -27 369 383 callsubr
          85 97 -474 1 callsubr
          -46 14 -29 38 -14 vhcurveto
          -68 vlineto
          -13 -5 -5 -14 vhcurveto
          -21 -70 56 hlineto
          67 21 24 49 hvcurveto
          73 51 -187 104 200 vlineto
          31 15 12 29 42 vvcurveto
          -61 callgsubr
          endchar
        </CharString>
        <CharString name="dvDD_N">
          -27 253 -268 rmoveto
          104 288 hlineto
          22 17 9 26 36 vvcurveto
          -61 callgsubr
          162 153 85 97 -474 -97 250 -63 -66 hlineto
          148 callsubr
          hlineto
          122 -137 rmoveto
          -139 hlineto
          20 callgsubr
          endchar
        </CharString>
        <CharString name="dvDH_N">
          385 518 287 callgsubr
          50 -178 hlineto
          -13 callgsubr
          -140 8 rmoveto
          -43 callsubr
          188 495 callsubr
          49 hhcurveto
          81 hlineto
          100 36 -55 callsubr
          188 144 97 -376 415 callsubr
          -1 259 rmoveto
          1 -97 rlineto
          498 97 hlineto
          endchar
        </CharString>
        <CharString name="dvD_N">
          -25 268 -191 rmoveto
          126 475 -126 -82 hlineto
          -21 -8 -6 -18 vhcurveto
          -42 243 callsubr
          50 hlineto
          23 15 -32 callgsubr
          -81 -88 vlineto
          -68 -36 -26 -73 hvcurveto
          -51 105 36 -17 callgsubr
          62 hlineto
          133 -141 rmoveto
          -139 hlineto
          20 callgsubr
          endchar
        </CharString>
        <CharString name="dvGH_N">
          275 453 287 callgsubr
          50 -178 hlineto
          -13 callgsubr
          303 338 rmoveto
          97 -776 -97 70 vlineto
          303 callgsubr
          115 495 callsubr
          48 hhcurveto
          272 callsubr
          188 89 97 -321 415 callsubr
          -168 vlineto
          -65 callgsubr
          -71 64 callgsubr
          29 8 4 34 vhcurveto
          endchar
        </CharString>
        <CharString name="dvG_N">
          425 603 356 70 callsubr
          -267 -202 -87 callsubr
          728 461 rmoveto
          -972 -97 -92 callgsubr
          562 vlineto
          endchar
        </CharString>
        <CharString name="dvJH_N">
          408 586 147 callsubr
          -223 185 rmoveto
          153 572 97 -969 -97 258 -63 -81 vlineto
          -52 callgsubr
          71 -30 hlineto
          -81 36 -32 100 vhcurveto
          -39 callgsubr
          188 134 97 -367 378 callsubr
          -66 -261 459 callgsubr
          endchar
        </CharString>
        <CharString name="dvJ_N">
          466 688 379 rmoveto
          -178 vlineto
          130 callgsubr
          318 97 rmoveto
          -699 -275 hlineto
          -88 callsubr
          77 -188 325 callsubr
          129 vlineto
          -977 257 rmoveto
          -97 977 97 vlineto
          endchar
        </CharString>
        <CharString name="dvKH_N">
          644 784 287 callgsubr
          50 -178 hlineto
          -82 callsubr
          -22 3 callgsubr
          -140 15 rmoveto
          160 callsubr
          151 97 -383 vlineto
          124 callgsubr
          -664 516 callgsubr
          226 vlineto
          -88 callgsubr
          777 97 hlineto
          endchar
        </CharString>
        <CharString name="dvK_N">
          462 690 349 rmoveto
          -148 vlineto
          387 callgsubr
          333 190 rmoveto
          97 -993 -97 271 -337 vlineto
          -104 callsubr
          58 -2 hlineto
          -156 186 callsubr
          158 144 97 -535 vlineto
          272 callgsubr
          vlineto
          endchar
        </CharString>
        <CharString name="dvM_N">
          453 681 201 75 callsubr
          688 204 rmoveto
          97 -954 -97 701 -107 -528 378 callsubr
          -142 -79 callgsubr
          144 75 -2 vlineto
          -142 41 callsubr
          144 114 97 -114 107 vlineto
          endchar
        </CharString>
        <CharString name="dvMatraI.a33">
          1420 845 rmoveto
          -1266 -106 callgsubr
          1136 hlineto
          29 5 -58 callsubr
        </CharString>
        <CharString name="dvMatraI.a34">
          1449 845 rmoveto
          -1295 -106 callgsubr
          1165 hlineto
          29 5 -58 callsubr
        </CharString>
        <CharString name="dvMatraI.a35">
          1478 845 rmoveto
          -1324 -106 callgsubr
          1194 -41 callgsubr
        </CharString>
        <CharString name="dvMatraI.a36">
          1507 845 rmoveto
          -1353 -106 callgsubr
          1223 -41 callgsubr
        </CharString>
        <CharString name="dvMatraI.a37">
          1536 845 rmoveto
          -1382 -106 callgsubr
          1252 -41 callgsubr
        </CharString>
        <CharString name="dvMatraI.a38">
          1566 845 rmoveto
          -1412 -106 callgsubr
          1282 hlineto
          28 6 -58 callsubr
        </CharString>
        <CharString name="dvMatraI.a39">
          1595 845 rmoveto
          -1441 -106 callgsubr
          1311 hlineto
          28 6 -58 callsubr
        </CharString>
        <CharString name="dvMatraI.a40">
          1623 845 rmoveto
          -1469 -106 callgsubr
          1339 118 callgsubr
        </CharString>
        <CharString name="dvMatraI.a41">
          1652 845 rmoveto
          -1498 -106 callgsubr
          1368 118 callgsubr
        </CharString>
        <CharString name="dvMatraI.a42">
          1682 845 rmoveto
          -1528 -106 callgsubr
          1398 hlineto
          29 5 -58 callsubr
        </CharString>
        <CharString name="dvMatraI.a43">
          1711 845 rmoveto
          -1557 -106 callgsubr
          1427 hlineto
          29 5 -58 callsubr
        </CharString>
        <CharString name="dvMatraI.a44">
          1740 845 rmoveto
          -1586 -106 callgsubr
          1456 hlineto
          29 5 -58 callsubr
        </CharString>
        <CharString name="dvMatraI.a45">
          1769 845 rmoveto
          -1615 -106 callgsubr
          1485 -41 callgsubr
        </CharString>
        <CharString name="dvMatraI.a46">
          1798 845 rmoveto
          -1644 -106 callgsubr
          1514 -41 callgsubr
        </CharString>
        <CharString name="dvMatraI.a47">
          1827 845 rmoveto
          -1673 -106 callgsubr
          1543 hlineto
          29 5 -58 callsubr
        </CharString>
        <CharString name="dvMatraI.a48">
          1856 845 rmoveto
          -1702 -106 callgsubr
          1572 hlineto
          29 5 -58 callsubr
        </CharString>
        <CharString name="dvMatraI.a49">
          1885 845 rmoveto
          -1731 -106 callgsubr
          1601 -41 callgsubr
        </CharString>
        <CharString name="dvMatraI.a50">
          1914 845 rmoveto
          -1760 -106 callgsubr
          1630 -41 callgsubr
        </CharString>
        <CharString name="dvNG_GA">
          35 386 291 -24 callsubr
          -46 14 -29 38 -14 vhcurveto
          -68 vlineto
          -13 -5 -5 -14 vhcurveto
          -21 -70 56 hlineto
          67 21 24 49 hvcurveto
          73 51 -187 104 200 vlineto
          31 15 12 29 42 vvcurveto
          -61 callgsubr
          162 153 147 97 hlineto
          endchar
        </CharString>
        <CharString name="dvNG_MA">
          251 497 415 rmoveto
          -107 -116 107 hlineto
          34 -209 rmoveto
          -148 121 hlineto
          67 -30 32 -92 vhcurveto
          -60 23 callgsubr
          30 -100 callsubr
          163 153 167 hlineto
          163 callsubr
          -755 -97 244 -63 -66 482 callsubr
          -59 352 callgsubr
          93 vhcurveto
          60 17 callgsubr
          -69 -48 callgsubr
          -28 hlineto
          -15 296 callgsubr
          40 -139 -54 vlineto
          -67 418 callgsubr
          60 hlineto
          11 11 1 2 11 hvcurveto
          -109 140 84 148 -148 139 694 65 vlineto
          endchar
        </CharString>
        <CharString name="dvNY_CA">
          420 901 636 rmoveto
          -921 -97 717 137 callsubr
          -240 -97 60 361 callsubr
          -23 -90 59 205 callgsubr
          90 -24 159 callgsubr
        </CharString>
        <CharString name="dvN_N">
          433 675 379 rmoveto
          -178 vlineto
          130 callgsubr
          -380 -178 -102 callgsubr
          678 97 rmoveto
          -771 40 callsubr
          -188 325 callsubr
          109 vlineto
          -944 257 rmoveto
          -97 944 97 vlineto
          endchar
        </CharString>
        <CharString name="dvPH_N">
          452 266 -38 callgsubr
          438 -160 rmoveto
          -178 vlineto
          -21 -8 152 callgsubr
          278 160 rmoveto
          97 -953 309 callsubr
          58 -2 hlineto
          -186 325 callsubr
          89 97 -480 440 callsubr
          77 vlineto
          endchar
        </CharString>
        <CharString name="dvP_N">
          250 428 147 callsubr
          303 338 rmoveto
          97 -751 -97 62 286 callsubr
          112 hlineto
          28 16 9 16 7 hvcurveto
          -17 22 33 -8 49 hhcurveto
          82 hlineto
          99 159 callsubr
          188 88 97 -321 378 callsubr
          -168 vlineto
          -65 callgsubr
          -47 -96 callsubr
          338 vlineto
          endchar
        </CharString>
        <CharString name="dvSHA_MatraVocalicR">
          197 188 524 185 callsubr
          426 -359 rmoveto
          497 64 97 -204 -259 -88 90 callsubr
          143 -157 -8 hlineto
          302 callgsubr
          -70 vlineto
          -67 417 callsubr
          201 97 -158 23 callgsubr
          34 389 callsubr
        </CharString>
        <CharString name="dvSH_VA.aSimp">
          451 178 640 rmoveto
          -106 callsubr
          648 -4 rmoveto
          -490 -97 286 -337 hlineto
          13 callsubr
        </CharString>
        <CharString name="dvS_N">
          421 673 201 rmoveto
          130 callgsubr
          49 hlineto
          229 97 rmoveto
          -322 hlineto
          189 callgsubr
          -20 -80 vlineto
          -43 callgsubr
          517 97 -921 -97 238 hlineto
          26 7 -7 -26 hvcurveto
          -116 vlineto
          -26 -8 -7 -25 vhcurveto
          -37 107 -139 -365 294 callgsubr
          278 -70 325 callsubr
          89 vlineto
          endchar
        </CharString>
        <CharString name="dvTH_N">
          386 540 147 callsubr
          -139 8 rmoveto
          26 callsubr
          16 9 16 7 hvcurveto
          -17 22 33 -8 49 hhcurveto
          -39 callgsubr
          188 112 97 -345 378 callsubr
          259 vmoveto
          -97 466 97 vlineto
          endchar
        </CharString>
        <CharString name="dvTTH_N">
          -9 211 97 rmoveto
          -70 callgsubr
          230 vlineto
          264 callgsubr
          17 -365 rmoveto
          104 284 hlineto
          33 17 13 31 49 490 callsubr
          175 227 callsubr
          hlineto
          122 -137 rmoveto
          -139 hlineto
          20 callgsubr
          endchar
        </CharString>
        <CharString name="dvTTH_TTHA">
          33 322 -83 rmoveto
          337 callsubr
          289 vmoveto
          337 callsubr
          187 175 rmoveto
          97 -529 -97 197 -54 vlineto
          -97 -1 -35 -32 -80 vvcurveto
          -95 vlineto
          -80 35 -32 97 -1 vhcurveto
          -47 vlineto
          -97 -1 -35 -31 -80 vvcurveto
          -96 vlineto
          -81 36 -32 100 vhcurveto
          139 hlineto
          100 36 -55 callsubr
          96 vlineto
          80 -35 31 -97 1 vhcurveto
          47 vlineto
          97 1 35 32 80 vvcurveto
          95 vlineto
          80 -35 32 -97 1 vhcurveto
          54 vlineto
          endchar
        </CharString>
        <CharString name="dvTT_GA">
          -19 398 379 253 callgsubr
          -53 15 -31 38 -16 vhcurveto
          -71 vlineto
          -13 -4 -5 -15 vhcurveto
          -20 -70 55 hlineto
          67 22 24 49 hvcurveto
          73 50 -187 105 205 vlineto
          30 17 12 31 47 vvcurveto
          -57 callgsubr
          endchar
        </CharString>
        <CharString name="dvTT_N">
          -19 268 -268 rmoveto
          105 297 hlineto
          19 18 8 28 38 vvcurveto
          -57 callgsubr
          187 160 64 97 -482 -97 279 -63 -93 hlineto
          262 callsubr
          hlineto
          122 -137 rmoveto
          -139 hlineto
          20 callgsubr
          endchar
        </CharString>
        <CharString name="dvT_KH_NA">
          1023 1089 201 463 callgsubr
          155 261 callsubr
          412 257 rmoveto
          -1521 158 callgsubr
          260 98 -237 hlineto
          -26 -7 7 26 hvcurveto
          104 72 vlineto
          90 34 30 74 hvcurveto
          175 vlineto
          11 -2 8 -5 6 vhcurveto
          695 -63 -301 107 callgsubr
          -161 vlineto
          -22 -9 -7 -19 174 callgsubr
          -30 -32 -67 hvcurveto
          -170 vlineto
          -81 40 -14 callgsubr
          71 hlineto
          30 18 8 15 9 hvcurveto
          -24 21 36 -11 58 260 callgsubr
        </CharString>
        <CharString name="dvT_N">
          259 481 379 rmoveto
          -178 vlineto
          -21 242 callsubr
          -21 -89 callgsubr
          155 -84 callgsubr
          308 97 rmoveto
          -577 -87 callgsubr
          59 -188 hlineto
          343 callgsubr
          119 vlineto
          -760 257 rmoveto
          -97 760 97 vlineto
          endchar
        </CharString>
        <CharString name="dvT_R_KA">
          469 950 488 callgsubr
          -970 -97 559 -337 vlineto
          -101 callgsubr
          18 390 callsubr
          -29 -32 -67 hvcurveto
          -101 -12 vlineto
          518 callsubr
          -21 callsubr
          22 hlineto
          -79 1 39 -31 75 hhcurveto
          62 hlineto
          23 14 4 10 9 hvcurveto
          -92 140 352 vlineto
          21 8 6 18 vhcurveto
          33 71 callgsubr
          -40 32 -76 vhcurveto
          -61 -41 callsubr
        </CharString>
        <CharString name="dvT_S_NA">
          836 1113 476 rmoveto
          -301 107 callgsubr
          -20 -79 105 callsubr
          498 hlineto
          -208 -338 67 callgsubr
          -1337 -97 469 255 callgsubr
          119 46 callgsubr
          148 277 -70 vlineto
          -81 37 -32 99 372 callsubr
        </CharString>
        <CharString name="dvV_N">
          228 406 287 callgsubr
          50 -178 hlineto
          -13 callgsubr
          -140 1 rmoveto
          160 callgsubr
          89 97 -321 415 callsubr
          -286 516 callgsubr
          729 97 vlineto
          endchar
        </CharString>
        <CharString name="dvY_N">
          346 524 287 callgsubr
          49 -178 hlineto
          426 callsubr
          -22 3 callgsubr
          303 435 rmoveto
          -847 -97 158 97 callsubr
          190 hlineto
          28 16 9 16 7 hvcurveto
          -17 22 33 -8 49 hhcurveto
          272 callsubr
          188 89 97 -321 vlineto
          124 callgsubr
          -168 vlineto
          -73 callsubr
          529 hlineto
          endchar
        </CharString>
        <CharString name="e">
          -32 168 291 -90 callgsubr
        </CharString>
        <CharString name="eacute">
          -32 396 670 29 callgsubr
          -105 -236 -90 callgsubr
        </CharString>
        <CharString name="ecaron">
          -32 285 527 -30 callgsubr
          17 -236 -90 callgsubr
        </CharString>
        <CharString name="ecircumflex">
          -33 220 601 24 callsubr
          1 -236 -90 callgsubr
        </CharString>
        <CharString name="edieresis">
          -33 393 658 49 callsubr
          -4 -251 -90 callgsubr
        </CharString>
        <CharString name="edotaccent">
          -32 288 657 411 callgsubr
          -120 -249 -90 callgsubr
        </CharString>
        <CharString name="egrave">
          -32 264 527 120 callsubr
          16 -236 -90 callgsubr
        </CharString>
        <CharString name="eight">
          47 callsubr
        </CharString>
        <CharString name="ellipsis">
          216 45 hmoveto
          504 callgsubr
          229 -147 rmoveto
          504 callgsubr
          229 -147 rmoveto
          504 callgsubr
          endchar
        </CharString>
        <CharString name="emacron">
          -32 386 645 301 callsubr
          -218 -263 -90 callgsubr
        </CharString>
        <CharString name="emdash">
          207 32 250 rmoveto
          598 98 -598 hlineto
          endchar
        </CharString>
        <CharString name="endash">
          75 38 250 rmoveto
          386 98 -386 hlineto
          endchar
        </CharString>
        <CharString name="eogonek">
          -32 168 291 rmoveto
          80 -69 callgsubr
          6 20 vhcurveto
          46 hlineto
          19 308 callgsubr
          -80 vlineto
          -106 204 rmoveto
          -91 -35 145 callsubr
          35 -42 91 vhcurveto
          25 -19 -6 hlineto
          73 callgsubr
          -87 hlineto
          99 callsubr
          103 3 12 callsubr
          48 -134 -33 vlineto
          -19 365 callgsubr
          -45 hlineto
          -20 -7 6 18 hvcurveto
          85 233 175 vlineto
          69 -36 510 callgsubr
        </CharString>
        <CharString name="equal">
          29 27 363 rmoveto
          437 108 -437 hlineto
          -308 vmoveto
          437 108 -437 hlineto
          endchar
        </CharString>
        <CharString name="eth">
          -11 271 130 rmoveto
          344 callgsubr
          -45 17 callsubr
          170 12 callgsubr
          70 hlineto
          1 -6 0 -7 -6 vvcurveto
          115 250 rmoveto
          73 vlineto
          -89 -28 -13 14 -12 12 -11 9 rlinecurve
          -193 hlineto
          23 -17 35 -26 35 -36 -60 -19 rcurveline
          -73 vlineto
          107 34 16 -23 14 -25 11 -28 rlinecurve
          -89 381 callsubr
          -201 247 callsubr
          91 vhcurveto
          122 12 callsubr
          197 vlineto
          99 -31 78 -36 57 vhcurveto
          endchar
        </CharString>
        <CharString name="exclam">
          -198 50 636 rmoveto
          25 -414 rlineto
          114 hlineto
          24 414 rlineto
          -154 -636 rmoveto
          401 callgsubr
          endchar
        </CharString>
        <CharString name="exclamdown">
          -198 59 347 rmoveto
          401 callgsubr
          154 -636 rmoveto
          -24 414 rlineto
          -114 hlineto
          -25 -414 rlineto
          endchar
        </CharString>
        <CharString name="f">
          -182 274 566 rmoveto
          103 -89 vlineto
          -91 -35 -42 -68 hvcurveto
          -64 -50 -105 50 -390 139 390 76 105 -76 46 12 callgsubr
          endchar
        </CharString>
        <CharString name="fi">
          -2 418 495 rmoveto
          -222 48 hlineto
          18 7 6 20 vhcurveto
          18 102 -56 hlineto
          -91 -35 -42 -68 hvcurveto
          -64 -50 -105 50 -390 137 390 84 -390 138 vlineto
          -138 669 rmoveto
          -102 138 102 vlineto
          endchar
        </CharString>
        <CharString name="five">
          147 callgsubr
        </CharString>
        <CharString name="fl">
          -2 281 669 rmoveto
          -174 -85 48 -69 callgsubr
          6 20 vhcurveto
          18 102 -56 hlineto
          -91 -35 -42 -68 hvcurveto
          -64 -50 -105 50 -390 137 390 85 -390 137 669 vlineto
          endchar
        </CharString>
        <CharString name="florin">
          -48 374 562 rmoveto
          107 -91 vlineto
          -91 -26 -43 -67 -10 hvcurveto
          -9 -64 rlineto
          -80 -105 65 hlineto
          -56 -404 rlineto
          -18 -2 -5 -7 -20 hhcurveto
          -51 -106 91 hlineto
          91 26 43 67 10 hvcurveto
          59 425 rlineto
          98 105 -83 hlineto
          6 43 rlineto
          18 2 5 6 20 hhcurveto
          endchar
        </CharString>
        <CharString name="four">
          231 callgsubr
        </CharString>
        <CharString name="fraction">
          260 callsubr
        </CharString>
        <CharString name="g">
          -27 200 126 86 callsubr
        </CharString>
        <CharString name="gbreve">
          -27 200 126 rmoveto
          -19 callgsubr
          214 355 callgsubr
          -200 502 callsubr
          313 rmoveto
          356 callgsubr
          -252 342 callsubr
          -76 vlineto
          -19 -8 -6 -19 vhcurveto
          -172 -102 212 hlineto
          90 183 callsubr
          517 -137 vlineto
          13 175 rmoveto
          87 callsubr
          100 12 callsubr
          32 vlineto
          endchar
        </CharString>
        <CharString name="germandbls">
          140 239 159 rmoveto
          -48 vlineto
          -68 33 -42 88 -1 vhcurveto
          103 hlineto
          90 29 42 69 hvcurveto
          75 vlineto
          69 -36 42 -90 vhcurveto
          -51 hlineto
          -20 -7 6 18 hvcurveto
          19 -69 callgsubr
          6 20 vhcurveto
          22 hlineto
          88 22 28 65 hvcurveto
          64 vlineto
          64 -36 41 -85 vhcurveto
          -251 hlineto
          -91 -29 -42 -68 hvcurveto
          -516 143 495 12 callgsubr
          148 hlineto
          19 5 -7 -18 hvcurveto
          -22 vlineto
          -17 -5 -6 -22 -83 -35 -33 -69 vhcurveto
          -35 vlineto
          -68 28 -42 91 vhcurveto
          55 380 callgsubr
          -55 vlineto
          -19 431 callgsubr
          -15 hlineto
          -18 1 -5 6 18 vvcurveto
          36 vlineto
          endchar
        </CharString>
        <CharString name="grave">
          9 247 670 348 callgsubr
        </CharString>
        <CharString name="greater">
          29 327 319 rmoveto
          -300 -83 rlineto
          -115 vlineto
          437 137 rlineto
          126 vlineto
          -437 131 rlineto
          -114 vlineto
          endchar
        </CharString>
        <CharString name="greaterequal">
          42 364 407 rmoveto
          -331 -49 rlineto
          -109 vlineto
          438 100 rlineto
          120 vlineto
          -438 92 rlineto
          -107 vlineto
          -324 vmoveto
          438 99 -438 hlineto
          endchar
        </CharString>
        <CharString name="guillemotleft">
          36 137 99 rmoveto
          134 hlineto
          -112 154 112 152 rlineto
          -134 hlineto
          -114 -152 rlineto
          322 -154 rmoveto
          135 hlineto
          -113 154 113 152 rlineto
          -135 hlineto
          -113 -152 rlineto
          endchar
        </CharString>
        <CharString name="guillemotright">
          36 271 253 rmoveto
          -113 152 rlineto
          -135 hlineto
          113 -152 -113 -154 rlineto
          135 hlineto
          322 154 rmoveto
          -114 152 rlineto
          -134 hlineto
          112 -152 -112 -154 rlineto
          134 hlineto
          endchar
        </CharString>
        <CharString name="guilsinglleft">
          -166 137 99 rmoveto
          141 hlineto
          -112 154 112 152 rlineto
          -141 hlineto
          -114 -152 rlineto
          endchar
        </CharString>
        <CharString name="guilsinglright">
          -165 278 253 rmoveto
          -113 152 rlineto
          -142 hlineto
          113 -152 -113 -154 rlineto
          142 hlineto
          endchar
        </CharString>
        <CharString name="h">
          -22 259 495 464 callgsubr
          139 358 vlineto
          23 10 9 19 vhcurveto
          24 36 callgsubr
          -365 140 384 349 callsubr
        </CharString>
        <CharString name="hungarumlaut">
          9 208 527 497 callgsubr
          -255 -143 497 callgsubr
          endchar
        </CharString>
        <CharString name="hyphen">
          455 callgsubr
        </CharString>
        <CharString name="i">
          175 callsubr
          -3 561 514 callgsubr
        </CharString>
        <CharString name="iacute">
          175 callsubr
          10 527 148 callgsubr
          endchar
        </CharString>
        <CharString name="icircumflex">
          175 callsubr
          -118 527 249 callsubr
        </CharString>
        <CharString name="idieresis">
          175 callsubr
          -110 542 182 callsubr
          endchar
        </CharString>
        <CharString name="igrave">
          175 callsubr
          36 670 348 callgsubr
        </CharString>
        <CharString name="imacron">
          175 callsubr
          -103 554 455 callsubr
        </CharString>
        <CharString name="infinity">
          140 490 301 rmoveto
          -25 -3 -8 -27 vhcurveto
          -35 hlineto
          -22 -14 16 18 -12 hvcurveto
          -28 41 33 57 rlineto
          19 11 8 9 17 hhcurveto
          42 hlineto
          27 3 -10 -23 hvcurveto
          -350 -127 rmoveto
          -26 -3 8 25 hvcurveto
          93 vlineto
          24 3 9 26 vhcurveto
          25 hlineto
          24 14 -16 -22 15 hvcurveto
          29 -44 -29 -48 rlineto
          -15 -9 -17 -14 -21 hhcurveto
          247 249 rmoveto
          -65 -13 -16 -60 -36 hvcurveto
          -9 -14 -9 14 rlineto
          50 -34 -23 26 -59 hhcurveto
          -38 hlineto
          -91 -35 -43 -66 hvcurveto
          -120 vlineto
          -67 35 -43 91 vhcurveto
          33 hlineto
          72 22 11 63 37 hvcurveto
          4 8 10 -14 rlineto
          -53 38 25 -15 61 hhcurveto
          34 hlineto
          92 34 43 67 hvcurveto
          120 vlineto
          66 -34 43 -92 vhcurveto
          endchar
        </CharString>
        <CharString name="integral">
          -50 282 571 rmoveto
          18 1 6 7 20 hhcurveto
          51 107 -91 hlineto
          -91 -36 -43 -68 hvcurveto
          -599 vlineto
          -18 -2 -5 -7 -19 hhcurveto
          -51 -106 90 hlineto
          91 36 42 68 hvcurveto
          endchar
        </CharString>
        <CharString name="iogonek">
          -238 184 669 rmoveto
          -145 -108 145 hlineto
          -72 -732 rmoveto
          99 callsubr
          598 -139 -495 55 -19 -6 hlineto
          410 callgsubr
        </CharString>
        <CharString name="itfLogo">
          1187 147 hmoveto
          269 callsubr
          236 -634 rmoveto
          269 callsubr
          236 -634 rmoveto
          269 callsubr
          -410 vmoveto
          196 185 -196 hlineto
          endchar
        </CharString>
        <CharString name="itfStar">
          211 663 452 rmoveto
          -28 -200 -6 -2 -34 hvcurveto
          -66 246 -8 -27 -53 -188 -8 -31 rlinecurve
          -261 8 25 -15 168 -108 28 -17 rlinecurve
          -96 -247 24 20 152 128 29 20 rlinecurve
          204 -168 -11 28 -71 189 -12 30 rlinecurve
          endchar
        </CharString>
        <CharString name="j">
          -238 42 -6 rmoveto
          -19 -8 -6 -19 vhcurveto
          -28 -102 68 hlineto
          90 183 callsubr
          517 -139 vlineto
          -3 66 514 callgsubr
        </CharString>
        <CharString name="k">
          -31 42 hmoveto
          139 669 -139 hlineto
          390 -174 373 callgsubr
        </CharString>
        <CharString name="l">
          -238 181 hmoveto
          441 callgsubr
          endchar
        </CharString>
        <CharString name="lacute">
          -238 54 701 148 callgsubr
          36 -844 rmoveto
          441 callgsubr
          endchar
        </CharString>
        <CharString name="lcaron">
          -195 223 669 rmoveto
          511 callsubr
          -142 -669 rmoveto
          441 callgsubr
          endchar
        </CharString>
        <CharString name="less">
          29 464 401 rmoveto
          114 vlineto
          -437 -131 rlineto
          -126 vlineto
          437 -137 rlineto
          115 vlineto
          -301 83 rlineto
          endchar
        </CharString>
        <CharString name="lessequal">
          42 468 454 rmoveto
          107 vlineto
          -438 -92 rlineto
          -120 vlineto
          438 -100 rlineto
          109 vlineto
          -331 49 rlineto
          331 -178 rmoveto
          -438 -99 438 hlineto
          endchar
        </CharString>
        <CharString name="logicalnot">
          66 473 410 rmoveto
          -429 -142 330 -144 99 hlineto
          endchar
        </CharString>
        <CharString name="lozenge">
          162 304 109 rmoveto
          -104 210 104 209 109 -209 rlineto
          -40 317 rmoveto
          -138 hlineto
          -174 -317 174 -318 rlineto
          138 hlineto
          179 318 rlineto
          endchar
        </CharString>
        <CharString name="lslash">
          -228 286 503 rmoveto
          -100 -48 rlineto
          214 -139 -280 vlineto
          -94 -45 rlineto
          -98 vlineto
          94 45 rlineto
          -291 139 357 vlineto
          100 48 rlineto
          endchar
        </CharString>
        <CharString name="m">
          196 479 495 rmoveto
          -45 -33 -21 -35 -10 hvcurveto
          36 -16 -34 20 -57 hhcurveto
          -25 hlineto
          284 callsubr
          -495 139 358 vlineto
          23 10 9 19 vhcurveto
          24 36 callgsubr
          -365 140 358 vlineto
          23 9 9 20 vhcurveto
          24 hlineto
          19 8 -7 -18 hvcurveto
          -365 139 384 vlineto
          69 -34 42 -83 vhcurveto
          endchar
        </CharString>
        <CharString name="macron">
          9 63 554 455 callsubr
        </CharString>
        <CharString name="minus">
          119 18 264 502 callgsubr
          endchar
        </CharString>
        <CharString name="multiply">
          -19 421 429 rmoveto
          -81 82 -118 -118 -119 118 -81 -82 118 -118 -118 -118 81 -82 119 119 118 -119 81 82 -118 118 rlineto
          endchar
        </CharString>
        <CharString name="n">
          -22 259 495 7 callgsubr
        </CharString>
        <CharString name="nacute">
          -22 385 670 29 callgsubr
          -3 -32 7 callgsubr
        </CharString>
        <CharString name="ncaron">
          -22 278 527 -30 callgsubr
          115 -32 7 callgsubr
        </CharString>
        <CharString name="nine">
          81 callsubr
        </CharString>
        <CharString name="notequal">
          54 359 423 rmoveto
          62 117 rlineto
          -92 hlineto
          -62 -117 rlineto
          -234 -209 124 hlineto
          -63 -119 rlineto
          93 hlineto
          63 119 rlineto
          233 209 hlineto
          endchar
        </CharString>
        <CharString name="ntilde">
          -22 149 558 rmoveto
          223 callgsubr
          -8 callgsubr
          vlineto
          110 -38 7 callgsubr
        </CharString>
        <CharString name="numbersign">
          148 342 244 rmoveto
          -105 hlineto
          30 148 rlineto
          105 hlineto
          207 hmoveto
          94 -66 vlineto
          495 callgsubr
          -105 hlineto
          495 callgsubr
          -94 -94 74 hlineto
          -30 -148 rlineto
          -86 -95 66 476 callsubr
          105 476 callsubr
          94 95 -74 hlineto
          30 148 rlineto
          endchar
        </CharString>
        <CharString name="o">
          -22 265 125 -83 callgsubr
        </CharString>
        <CharString name="oacute">
          -22 402 670 29 callgsubr
          -14 -402 -83 callgsubr
        </CharString>
        <CharString name="ocircumflex">
          -22 219 601 24 callsubr
          99 -402 -83 callgsubr
        </CharString>
        <CharString name="odieresis">
          -22 396 658 49 callsubr
          90 -417 -83 callgsubr
        </CharString>
        <CharString name="oe">
          278 394 293 rmoveto
          75 447 callgsubr
          40 hlineto
          19 8 -6 -19 hvcurveto
          -75 vlineto
          -230 -158 rmoveto
          -21 -1 -9 -9 -20 hhcurveto
          -23 hlineto
          -20 -7 7 18 hvcurveto
          235 436 callgsubr
          9 -9 -21 1 hvcurveto
          171 135 rmoveto
          395 callgsubr
          -273 220 callsubr
          230 178 vlineto
          69 -36 510 callgsubr
        </CharString>
        <CharString name="ogonek">
          9 261 -171 rmoveto
          99 callsubr
          117 -84 -33 -6 hlineto
          410 callgsubr
        </CharString>
        <CharString name="ograve">
          -22 271 527 120 callsubr
          106 -402 -83 callgsubr
        </CharString>
        <CharString name="ohungarumlaut">
          -22 343 527 126 callsubr
          85 -402 -83 callgsubr
        </CharString>
        <CharString name="omacron">
          -22 385 645 301 callsubr
          -120 -429 -83 callgsubr
        </CharString>
        <CharString name="one">
          410 callsubr
        </CharString>
        <CharString name="onesuperior">
          -271 147 636 rmoveto
          -137 -61 46 -289 91 hlineto
          endchar
        </CharString>
        <CharString name="ordfeminine">
          -154 132 359 rmoveto
          -14 -5 5 13 hvcurveto
          170 vlineto
          13 5 5 14 vhcurveto
          36 hlineto
          14 7 -7 -16 hvcurveto
          -160 vlineto
          -16 -7 -7 -14 vhcurveto
          23 277 rmoveto
          -38 vlineto
          25 -5 -17 13 -31 hhcurveto
          -30 hlineto
          -59 -24 -29 -49 hvcurveto
          -193 vlineto
          -49 24 -30 59 vhcurveto
          32 hlineto
          27 15 10 20 7 hvcurveto
          -30 88 350 vlineto
          endchar
        </CharString>
        <CharString name="ordmasculine">
          -161 186 364 rmoveto
          -13 -5 -4 -14 vhcurveto
          -35 hlineto
          -14 -5 4 13 hvcurveto
          193 vlineto
          14 5 4 14 vhcurveto
          35 hlineto
          14 5 -4 -14 hvcurveto
          -74 79 rmoveto
          -64 -23 -29 -49 hvcurveto
          -193 vlineto
          -49 23 -30 64 vhcurveto
          75 hlineto
          64 23 30 49 hvcurveto
          193 vlineto
          49 -23 29 -64 vhcurveto
          endchar
        </CharString>
        <CharString name="oslash">
          -19 271 120 rmoveto
          -19 -8 -6 -20 vhcurveto
          -45 hlineto
          -15 -8 3 10 -3 hvcurveto
          99 168 rlineto
          -100 99 rmoveto
          91 callgsubr
          45 hlineto
          15 8 -4 -10 3 hvcurveto
          -98 -167 rlineto
          240 296 rmoveto
          -66 hlineto
          -15 -25 rlineto
          3 -14 -16 2 -19 hhcurveto
          -120 hlineto
          -91 -32 183 callgsubr
          -33 7 -26 17 -19 vhcurveto
          -31 -53 rlineto
          66 hlineto
          15 25 rlineto
          -3 14 16 -2 19 hhcurveto
          120 hlineto
          90 33 42 69 hvcurveto
          273 vlineto
          32 -7 27 -17 19 vhcurveto
          endchar
        </CharString>
        <CharString name="otilde">
          -22 153 558 rmoveto
          223 callgsubr
          -8 callgsubr
          vlineto
          112 -408 -83 callgsubr
        </CharString>
        <CharString name="p">
          -27 261 361 callgsubr
          -24 hlineto
          -19 -10 9 23 hvcurveto
          221 vlineto
          23 10 9 19 vhcurveto
          24 36 callgsubr
          -2 130 rmoveto
          284 callsubr
          -628 139 339 callgsubr
        </CharString>
        <CharString name="paragraph">
          84 314 636 rmoveto
          -152 hlineto
          246 callsubr
          -199 247 callsubr
          91 vhcurveto
          37 -349 115 hlineto
          62 769 rmoveto
          -769 115 769 vlineto
          endchar
        </CharString>
        <CharString name="parenleft">
          -152 43 451 rmoveto
          -271 vlineto
          -226 91 -124 165 vhcurveto
          11 119 -10 hlineto
          -72 3 -43 73 153 vvcurveto
          275 vlineto
          152 43 74 72 2 vhcurveto
          10 1 rlineto
          118 -11 vlineto
          -165 -91 -123 -226 hvcurveto
          endchar
        </CharString>
        <CharString name="parenright">
          -152 266 180 rmoveto
          271 vlineto
          226 -91 123 -166 vhcurveto
          -11 -118 hlineto
          11 -1 rlineto
          72 -2 42 -74 -152 vvcurveto
          -275 vlineto
          -153 -42 -73 -72 -3 vhcurveto
          -11 -119 11 hlineto
          166 91 124 226 hvcurveto
          endchar
        </CharString>
        <CharString name="percent">
          340 30 callgsubr
          endchar
        </CharString>
        <CharString name="period">
          -242 37 hmoveto
          401 callgsubr
          endchar
        </CharString>
        <CharString name="periodcentered">
          -210 43 258 rmoveto
          145 142 -145 hlineto
          endchar
        </CharString>
        <CharString name="perthousand">
          674 30 callgsubr
          487 -361 rmoveto
          57 -29 34 -74 vhcurveto
          -89 hlineto
          -74 -28 -34 -57 hvcurveto
          -184 vlineto
          -56 28 -35 74 vhcurveto
          89 hlineto
          74 29 35 56 hvcurveto
          -116 17 rmoveto
          -16 -5 -5 -17 vhcurveto
          -18 hlineto
          -18 348 callsubr
          18 vhcurveto
          18 hlineto
          17 5 -6 -16 hvcurveto
          endchar
        </CharString>
        <CharString name="pi">
          58 512 495 rmoveto
          -444 -364 hlineto
          364 callsubr
          -34 -107 74 351 callsubr
          286 91 -397 143 397 71 vlineto
          endchar
        </CharString>
        <CharString name="plus">
          12 455 370 rmoveto
          -151 153 -135 -153 -151 -106 151 -153 135 153 151 hlineto
          endchar
        </CharString>
        <CharString name="plusminus">
          29 27 151 502 callgsubr
          286 210 rmoveto
          77 -135 -77 -151 -103 151 -76 135 76 151 103 vlineto
          endchar
        </CharString>
        <CharString name="product">
          39 62 636 rmoveto
          -505 335 callgsubr
          -32 -107 72 351 callsubr
          427 111 -538 143 636 vlineto
          endchar
        </CharString>
        <CharString name="q">
          -27 200 105 -56 callgsubr
          -182 139 628 vlineto
          endchar
        </CharString>
        <CharString name="question">
          -40 125 hmoveto
          401 callgsubr
          22 488 rmoveto
          -92 -35 -43 -67 hvcurveto
          -82 143 69 -69 callgsubr
          7 19 vhcurveto
          35 hlineto
          20 6 -7 -18 hvcurveto
          -121 vlineto
          -18 -6 -7 -20 vhcurveto
          -97 hlineto
          13 -145 227 callgsubr
          6 63 rlineto
          2 hlineto
          91 35 43 67 hvcurveto
          131 vlineto
          67 -35 43 -91 vhcurveto
          endchar
        </CharString>
        <CharString name="questiondown">
          -40 288 495 rmoveto
          -145 -148 145 hlineto
          -38 -296 rmoveto
          -69 vlineto
          344 callgsubr
          -35 hlineto
          -20 -6 7 18 hvcurveto
          121 vlineto
          18 6 7 20 vhcurveto
          97 hlineto
          -13 145 rlineto
          -119 hlineto
          -6 -63 rlineto
          -2 hlineto
          -91 -35 -43 -67 hvcurveto
          -131 vlineto
          -67 35 -43 91 vhcurveto
          120 hlineto
          92 35 43 67 hvcurveto
          82 vlineto
          endchar
        </CharString>
        <CharString name="quotedbl">
          -81 39 636 rmoveto
          -250 126 250 vlineto
          50 hmoveto
          -250 127 250 vlineto
          endchar
        </CharString>
        <CharString name="quotedblbase">
          -54 37 148 rmoveto
          -293 40 vlineto
          105 213 rlineto
          80 vlineto
          43 hmoveto
          -293 40 vlineto
          105 213 rlineto
          80 vlineto
          endchar
        </CharString>
        <CharString name="quotedblleft">
          -54 370 342 rmoveto
          294 -40 503 callgsubr
          -43 hmoveto
          294 -40 503 callgsubr
          endchar
        </CharString>
        <CharString name="quotedblright">
          -54 37 636 rmoveto
          -294 40 506 callgsubr
          43 hmoveto
          -294 40 506 callgsubr
          endchar
        </CharString>
        <CharString name="quoteleft">
          -241 183 342 rmoveto
          294 -41 503 callgsubr
          endchar
        </CharString>
        <CharString name="quoteright">
          -241 37 636 rmoveto
          -294 41 506 callgsubr
          endchar
        </CharString>
        <CharString name="quotesinglbase">
          311 callsubr
          endchar
        </CharString>
        <CharString name="quotesingle">
          -249 39 636 rmoveto
          -250 134 250 vlineto
          endchar
        </CharString>
        <CharString name="r">
          -163 276 498 316 callgsubr
        </CharString>
        <CharString name="racute">
          -163 346 670 29 callgsubr
          -44 310 callgsubr
        </CharString>
        <CharString name="rcaron">
          -163 234 527 -30 callgsubr
          79 310 callgsubr
        </CharString>
        <CharString name="registered">
          -7 422 548 rmoveto
          105 -32 66 -108 vhcurveto
          -111 hlineto
          -108 -31 -66 -105 hvcurveto
          -25 vlineto
          -104 31 -65 108 vhcurveto
          111 hlineto
          108 32 65 104 hvcurveto
          -237 -116 rmoveto
          -63 -26 24 84 hvcurveto
          41 vlineto
          84 26 26 63 vhcurveto
          84 hlineto
          63 26 -26 -84 hvcurveto
          -41 vlineto
          -84 -26 -24 -63 vhcurveto
          -105 228 rmoveto
          -196 49 72 7 vlineto
          32 -72 rlineto
          53 hlineto
          -37 74 rlineto
          18 5 7 13 18 vvcurveto
          49 vlineto
          24 -12 13 -31 vhcurveto
          -6 -80 rmoveto
          -5 -2 -2 -5 vhcurveto
          -24 52 24 hlineto
          5 2 -2 -5 hvcurveto
          endchar
        </CharString>
        <CharString name="ring">
          9 365 607 rmoveto
          51 -24 31 -67 vhcurveto
          -78 hlineto
          -67 -24 -31 -51 hvcurveto
          -16 vlineto
          -52 24 -30 67 vhcurveto
          78 hlineto
          67 24 30 52 hvcurveto
          -89 2 rmoveto
          -16 -5 -44 callgsubr
          -36 hlineto
          -18 -4 5 16 hvcurveto
          11 vlineto
          16 4 6 18 vhcurveto
          36 hlineto
          18 5 -6 -16 hvcurveto
          endchar
        </CharString>
        <CharString name="s">
          -60 237 119 82 callsubr
        </CharString>
        <CharString name="sacute">
          -60 151 527 148 callgsubr
          -5 80 callgsubr
        </CharString>
        <CharString name="scaron">
          -60 132 527 181 callsubr
          224 80 callgsubr
        </CharString>
        <CharString name="section">
          33 299 260 rmoveto
          -19 431 callgsubr
          -50 hlineto
          -20 -7 6 19 hvcurveto
          86 12 callgsubr
          50 36 callgsubr
          138 174 rmoveto
          38 vlineto
          69 226 callsubr
          -108 381 callsubr
          -77 vlineto
          -30 7 -26 16 -18 vhcurveto
          -26 -19 -9 -33 -43 vvcurveto
          -65 vlineto
          -68 277 callgsubr
          63 36 callgsubr
          -56 335 callgsubr
          -28 hlineto
          -20 -7 6 18 hvcurveto
          29 -140 -38 vlineto
          -68 36 -42 91 vhcurveto
          108 hlineto
          91 36 42 68 hvcurveto
          78 vlineto
          27 -6 23 -12 18 vhcurveto
          23 19 8 32 40 vvcurveto
          74 vlineto
          69 226 callsubr
          -63 hlineto
          -20 -7 6 18 hvcurveto
          56 447 callgsubr
          28 380 callgsubr
          -29 vlineto
          endchar
        </CharString>
        <CharString name="semicolon">
          311 callsubr
          -145 198 rmoveto
          145 149 -145 hlineto
          endchar
        </CharString>
        <CharString name="seven">
          317 callgsubr
        </CharString>
        <CharString name="six">
          83 callsubr
        </CharString>
        <CharString name="slash">
          260 callsubr
        </CharString>
        <CharString name="space">
          -282 endchar
        </CharString>
        <CharString name="sterling">
          0 187 105 rmoveto
          21 15 5 27 34 vvcurveto
          72 142 98 -142 155 12 callgsubr
          29 36 callgsubr
          -73 143 93 226 callgsubr
          -115 hlineto
          246 callsubr
          -175 -45 -98 45 -67 vlineto
          -56 -5 -27 -40 -4 vhcurveto
          -99 418 105 vlineto
          endchar
        </CharString>
        <CharString name="t">
          -190 261 390 294 callsubr
        </CharString>
        <CharString name="tcaron">
          -190 196 587 rmoveto
          -139 -92 -52 -105 52 -279 hlineto
          -69 36 -42 90 vhcurveto
          78 107 -38 hlineto
          -19 -8 6 18 hvcurveto
          259 65 105 -65 vlineto
          43 213 rmoveto
          -178 36 vlineto
          68 112 rlineto
          66 vlineto
          endchar
        </CharString>
        <CharString name="thorn">
          -20 257 361 callgsubr
          -24 hlineto
          -20 -9 9 23 hvcurveto
          221 vlineto
          23 9 9 20 vhcurveto
          24 36 callgsubr
          -2 130 rmoveto
          -44 -27 -20 -36 -9 hvcurveto
          230 -138 -802 140 339 callgsubr
        </CharString>
        <CharString name="three">
          65 callgsubr
        </CharString>
        <CharString name="threesuperior">
          -204 103 562 rmoveto
          9 3 4 11 vhcurveto
          15 hlineto
          11 4 -4 -9 hvcurveto
          -59 vlineto
          -10 -4 -3 -11 vhcurveto
          -35 -58 35 hlineto
          11 4 -3 -10 hvcurveto
          -58 vlineto
          -10 -4 -4 -11 vhcurveto
          -15 hlineto
          -11 -3 4 10 hvcurveto
          38 -89 -52 vlineto
          -38 20 -23 50 vhcurveto
          81 hlineto
          50 19 23 38 hvcurveto
          67 vlineto
          24 -5 16 -19 8 vhcurveto
          19 8 5 18 25 vvcurveto
          63 vlineto
          37 -19 23 -50 vhcurveto
          -81 hlineto
          -50 -20 -23 -37 hvcurveto
          -52 89 vlineto
          endchar
        </CharString>
        <CharString name="tilde">
          9 304 533 rmoveto
          -8 callgsubr
          25 vlineto
          223 callgsubr
          endchar
        </CharString>
        <CharString name="trademark">
          230 9 552 rmoveto
          84 -245 105 245 85 84 -274 hlineto
          542 hmoveto
          -64 -185 -64 185 rlineto
          -110 -329 92 178 hlineto
          43 -130 rlineto
          78 hlineto
          43 131 rlineto
          -179 92 329 vlineto
          endchar
        </CharString>
        <CharString name="two">
          132 callsubr
        </CharString>
        <CharString name="twosuperior">
          -206 102 562 rmoveto
          9 3 4 12 vhcurveto
          13 hlineto
          11 3 -4 -9 hvcurveto
          -30 vlineto
          -30 -2 -13 -17 -20 vhcurveto
          -110 -125 rlineto
          -58 218 65 -111 vlineto
          75 89 rlineto
          23 25 12 29 43 vvcurveto
          39 vlineto
          37 -19 23 -50 vhcurveto
          -80 hlineto
          -50 -20 -23 -37 hvcurveto
          -65 89 vlineto
          endchar
        </CharString>
        <CharString name="u">
          -22 258 495 -52 callsubr
        </CharString>
        <CharString name="uacute">
          -22 391 670 29 callgsubr
          -10 -32 -52 callsubr
        </CharString>
        <CharString name="ucircumflex">
          -24 217 601 24 callsubr
          94 -32 -52 callsubr
        </CharString>
        <CharString name="udieresis">
          -13 393 658 49 callsubr
          86 -47 -52 callsubr
        </CharString>
        <CharString name="ugrave">
          -22 278 527 120 callsubr
          92 -32 -52 callsubr
        </CharString>
        <CharString name="uhungarumlaut">
          -22 342 527 126 callsubr
          79 -32 -52 callsubr
        </CharString>
        <CharString name="umacron">
          -22 388 645 301 callsubr
          -130 -59 -52 callsubr
        </CharString>
        <CharString name="underscore">
          13 -139 vmoveto
          474 98 -474 hlineto
          endchar
        </CharString>
        <CharString name="uni00A0">
          -282 endchar
        </CharString>
        <CharString name="uni00AD">
          455 callgsubr
        </CharString>
        <CharString name="uni00B5">
          -17 260 495 rmoveto
          -358 335 callsubr
          -23 17 callsubr
          365 -140 -628 140 133 1 vlineto
          45 27 20 36 9 hvcurveto
          -56 137 490 callgsubr
        </CharString>
        <CharString name="uni0122">
          -5 168 99 callgsubr
          253 478 34 callgsubr
        </CharString>
        <CharString name="uni0123">
          -27 298 752 rmoveto
          -45 hlineto
          -96 -153 rlineto
          -72 141 vlineto
          -98 -401 86 callsubr
        </CharString>
        <CharString name="uni0136">
          14 187 636 rmoveto
          -142 449 callgsubr
          hlineto
          -24 99 callgsubr
          304 684 rmoveto
          368 callgsubr
        </CharString>
        <CharString name="uni0137">
          -31 181 669 rmoveto
          -139 -669 139 hlineto
          -27 -273 rmoveto
          44 hlineto
          97 153 rlineto
          72 -141 vlineto
          278 543 373 callgsubr
        </CharString>
        <CharString name="uni013B">
          -90 135 99 callgsubr
          52 153 299 callgsubr
        </CharString>
        <CharString name="uni013C">
          -238 181 hmoveto
          441 callgsubr
          -1 -48 rmoveto
          -225 44 vlineto
          97 153 rlineto
          72 vlineto
          endchar
        </CharString>
        <CharString name="uni0145">
          151 callgsubr
          -278 -684 206 callsubr
        </CharString>
        <CharString name="uni0146">
          -22 150 99 callgsubr
          109 543 7 callgsubr
        </CharString>
        <CharString name="uni0156">
          8 159 99 callgsubr
          28 579 rmoveto
          441 callsubr
          -143 vlineto
          -18 -7 -6 -19 vhcurveto
          -77 hlineto
          166 -97 rmoveto
          57 13 23 38 55 vvcurveto
          178 483 callgsubr
          -262 449 callgsubr
          238 25 hlineto
          100 -238 rlineto
          153 hlineto
          endchar
        </CharString>
        <CharString name="uni0157">
          -163 41 99 callgsubr
          235 546 316 callgsubr
        </CharString>
        <CharString name="uni015E">
          -19 266 130 -70 callsubr
          -119 -293 206 callsubr
        </CharString>
        <CharString name="uni015F">
          -60 237 119 -66 callsubr
          -108 -223 206 callsubr
        </CharString>
        <CharString name="uni0162">
          133 callsubr
        </CharString>
        <CharString name="uni0163">
          133 callsubr
        </CharString>
        <CharString name="uni0218">
          -19 266 130 -70 callsubr
          -118 -293 206 callsubr
        </CharString>
        <CharString name="uni0219">
          -60 237 119 -66 callsubr
          -110 -223 206 callsubr
        </CharString>
        <CharString name="uni021A">
          133 callsubr
        </CharString>
        <CharString name="uni021B">
          -190 81 -273 rmoveto
          44 hlineto
          97 153 rlineto
          72 -141 vlineto
          180 438 294 callsubr
        </CharString>
        <CharString name="uni02C9">
          9 63 553 rmoveto
          343 92 -343 hlineto
          endchar
        </CharString>
        <CharString name="uni0901">
          -461 -326 858 rmoveto
          429 callgsubr
          -118 106 callgsubr
          vlineto
          44 62 rmoveto
          -111 105 111 vlineto
          endchar
        </CharString>
        <CharString name="uni0902">
          -461 -166 844 250 callgsubr
        </CharString>
        <CharString name="uni0902.aMatraI">
          -461 27 774 110 callsubr
        </CharString>
        <CharString name="uni0903">
          61 176 rmoveto
          -116 107 116 vlineto
          -107 313 110 callsubr
        </CharString>
        <CharString name="uni0905">
          200 681 636 rmoveto
          -204 -274 -113 hlineto
          -71 callgsubr
          64 vlineto
          endchar
        </CharString>
        <CharString name="uni0906">
          505 callsubr
          -433 -274 -113 hlineto
          -80 callsubr
          endchar
        </CharString>
        <CharString name="uni0907">
          -36 375 383 callsubr
          70 97 -465 38 callgsubr
          endchar
        </CharString>
        <CharString name="uni0908">
          -36 448 711 rmoveto
          89 -91 vlineto
          -92 -30 -31 -67 hvcurveto
          -66 -255 38 callgsubr
          178 153 70 97 -70 52 hlineto
          18 7 5 18 vhcurveto
          endchar
        </CharString>
        <CharString name="uni09080902">
          -36 375 392 callgsubr
          -255 38 callgsubr
          178 153 70 97 -70 hlineto
          34 122 343 callsubr
        </CharString>
        <CharString name="uni0909">
          -34 441 636 rmoveto
          -461 164 callgsubr
          196 vlineto
          35 -16 15 -28 3 vhcurveto
          4 vlineto
          28 3 16 16 34 vvcurveto
          109 vlineto
          10 -2 9 -5 6 vhcurveto
          72 hlineto
          endchar
        </CharString>
        <CharString name="uni090A">
          150 631 636 rmoveto
          -651 164 callgsubr
          152 47 -69 callgsubr
          -5 -21 hvcurveto
          -105 -48 callgsubr
          -15 -97 58 94 callgsubr
          136 vlineto
          81 -40 32 -76 vhcurveto
          -140 4 hlineto
          28 3 16 16 34 vvcurveto
          109 vlineto
          10 -2 9 -5 6 vhcurveto
          262 hlineto
          endchar
        </CharString>
        <CharString name="uni090B">
          437 657 364 rmoveto
          18 7 6 18 vhcurveto
          13 hlineto
          19 6 -6 -18 hvcurveto
          -65 vlineto
          -17 -8 -6 -15 vhcurveto
          -16 hlineto
          -16 -8 6 17 hvcurveto
          -202 240 rmoveto
          463 97 -938 -97 336 -263 -12 hlineto
          518 callsubr
          -21 callsubr
          22 -188 139 188 240 hlineto
          17 8 -5 -17 hvcurveto
          -53 vlineto
          -17 -7 33 callsubr
          -16 hlineto
          -14 -6 6 17 hvcurveto
          27 -140 -42 vlineto
          -64 28 -34 91 vhcurveto
          100 hlineto
          93 28 33 65 hvcurveto
          81 vlineto
          36 -15 15 -27 5 vhcurveto
          5 vlineto
          28 6 15 16 42 vvcurveto
          60 vlineto
          79 -36 33 -101 vhcurveto
          -69 451 callgsubr
          -74 hlineto
          endchar
        </CharString>
        <CharString name="uni090C">
          203 622 42 rmoveto
          497 149 callgsubr
          -151 140 151 42 callsubr
          55 -247 -8 hlineto
          -91 369 callgsubr
          -70 vlineto
          -67 418 callgsubr
          201 97 -157 -96 callgsubr
          34 430 callgsubr
        </CharString>
        <CharString name="uni090D">
          11 326 672 rmoveto
          448 callgsubr
          -117 172 callsubr
          34 -32 96 vhcurveto
          333 -36 rmoveto
          -512 -97 65 -440 hlineto
          5 callsubr
        </CharString>
        <CharString name="uni090E">
          11 492 636 rmoveto
          -62 292 callsubr
          -311 -97 65 -440 vlineto
          5 callsubr
        </CharString>
        <CharString name="uni090F">
          11 492 636 rmoveto
          -512 -97 65 -440 hlineto
          5 callsubr
        </CharString>
        <CharString name="uni0910">
          11 492 636 rmoveto
          -67 210 callsubr
          -307 -97 65 -440 hlineto
          5 callsubr
        </CharString>
        <CharString name="uni0911">
          505 callsubr
          -433 -274 -113 hlineto
          -80 callsubr
          -38 319 126 callgsubr
        </CharString>
        <CharString name="uni0912">
          505 callsubr
          -65 292 callsubr
          -229 -274 -113 vlineto
          -80 callsubr
          endchar
        </CharString>
        <CharString name="uni0913">
          505 callsubr
          -68 210 callsubr
          -227 -274 -113 hlineto
          -80 callsubr
          endchar
        </CharString>
        <CharString name="uni0914">
          505 callsubr
          -67 hlineto
          -23 198 346 callgsubr
          -167 hlineto
          124 -108 51 -45 30 -23 36 -22 rlinecurve
          -223 -274 -113 hlineto
          -80 callsubr
          endchar
        </CharString>
        <CharString name="uni0915">
          181 662 488 callgsubr
          -682 65 callsubr
          352 -47 callgsubr
          33 71 callgsubr
          -40 32 -76 vhcurveto
          -61 -41 callsubr
        </CharString>
        <CharString name="uni0915093C">
          181 77 505 callgsubr
          585 530 rmoveto
          97 -682 65 callsubr
          352 -47 callgsubr
          33 71 callgsubr
          -40 32 -76 vhcurveto
          -61 -41 callsubr
        </CharString>
        <CharString name="uni0915093C094D">
          -11 77 505 callgsubr
          456 530 rmoveto
          97 -553 -97 271 -337 vlineto
          -104 callsubr
          116 97 -95 hlineto
          272 callgsubr
          vlineto
          endchar
        </CharString>
        <CharString name="uni0915093C094D0915093C">
          624 84 -117 -67 callgsubr
          441 -114 -67 callgsubr
          169 201 rmoveto
          -101 callgsubr
          17 90 -215 -35 callgsubr
          303 vlineto
          411 hmoveto
          97 -1125 65 callsubr
          352 -47 callgsubr
          59 hlineto
          -4 -13 -2 -14 -12 vvcurveto
          -149 vlineto
          -101 callsubr
        </CharString>
        <CharString name="uni0915093C094D0924">
          439 84 -116 -67 callgsubr
          622 446 rmoveto
          -268 hlineto
          272 callgsubr
          315 vlineto
          163 callsubr
          -930 -95 callgsubr
          58 -2 hlineto
          -248 328 callgsubr
          205 501 callgsubr
          -349 320 callgsubr
        </CharString>
        <CharString name="uni0915093C094D092B">
          635 84 -116 -67 callgsubr
          621 -38 callgsubr
          -267 199 callgsubr
          90 -93 vlineto
          635 93 rmoveto
          97 -1136 -97 271 -337 vlineto
          -104 callsubr
          64 -158 hlineto
          -101 callsubr
        </CharString>
        <CharString name="uni0915093C094D092B093C">
          635 92 -116 -67 callgsubr
          461 -116 -67 callgsubr
          152 -38 callgsubr
          -267 199 callgsubr
          90 -93 vlineto
          635 93 rmoveto
          97 -1136 -97 271 -337 vlineto
          -104 callsubr
          64 -158 hlineto
          -101 callsubr
        </CharString>
        <CharString name="uni0915093C094D092C">
          494 84 -116 -67 callgsubr
          572 386 rmoveto
          73 90 -291 -35 callgsubr
          379 -214 vlineto
          -89 6 -24 123 callsubr
          -96 43 -34 callsubr
          364 435 rmoveto
          -995 11 callgsubr
          352 -47 callgsubr
          54 -2 hlineto
          123 callgsubr
          149 hlineto
          14 12 2 4 8 hvcurveto
          -84 43 callgsubr
        </CharString>
        <CharString name="uni0915093C094D092E">
          646 84 -116 -67 callgsubr
          839 24 callgsubr
        </CharString>
        <CharString name="uni0915093C094D0930">
          181 206 -165 -67 callgsubr
          456 588 57 callsubr
        </CharString>
        <CharString name="uni0915093C094D0930094D">
          63 208 -163 -67 callgsubr
          359 586 rmoveto
          97 -587 1 callgsubr
          322 -47 callgsubr
          150 97 -129 hlineto
          272 callgsubr
          vlineto
          endchar
        </CharString>
        <CharString name="uni0915094D">
          -11 533 488 callgsubr
          -553 -97 271 -337 vlineto
          -104 callsubr
          116 97 -95 hlineto
          272 callgsubr
          vlineto
          endchar
        </CharString>
        <CharString name="uni0915094D0915">
          624 694 202 rmoveto
          -101 callgsubr
          17 90 -215 -35 callgsubr
          303 vlineto
          411 hmoveto
          97 -1125 65 callsubr
          352 -47 callgsubr
          59 hlineto
          -4 -13 -2 -14 -12 vvcurveto
          -149 vlineto
          -101 callsubr
        </CharString>
        <CharString name="uni0915094D0916">
          798 672 365 rmoveto
          -26 -8 -7 -26 vhcurveto
          -23 114 -177 hlineto
          272 callgsubr
          247 vlineto
          26 8 6 callgsubr
          607 130 rmoveto
          -1299 -95 callgsubr
          58 -245 hlineto
          -6 callsubr
        </CharString>
        <CharString name="uni0915094D091A">
          421 698 202 rmoveto
          -21 -8 -6 -19 vhcurveto
          -38 -99 callgsubr
          122 vlineto
          24 8 2 26 vhcurveto
          19 97 -223 hlineto
          272 callgsubr
          307 vlineto
          163 callsubr
          -922 -95 callgsubr
          65 361 callsubr
          -113 vlineto
          -81 39 -14 callgsubr
          68 261 callgsubr
          539 65 vlineto
          endchar
        </CharString>
        <CharString name="uni0915094D091C">
          629 906 476 rmoveto
          -215 -275 hlineto
          -21 242 callsubr
          -23 3 callgsubr
          275 -177 440 callsubr
          77 515 vlineto
          163 callsubr
          -1130 11 callgsubr
          352 -47 callgsubr
          58 -188 hlineto
          -81 36 -32 100 360 callgsubr
          188 75 250 callsubr
        </CharString>
        <CharString name="uni0915094D091F">
          414 689 476 rmoveto
          -251 -35 callgsubr
          298 vlineto
          140 -160 rmoveto
          160 66 97 -915 65 callsubr
          352 -47 callgsubr
          58 -2 hlineto
          -264 112 callgsubr
        </CharString>
        <CharString name="uni0915094D0923">
          643 698 201 rmoveto
          -21 242 callsubr
          -23 3 callgsubr
          338 76 vlineto
          -260 199 callgsubr
          91 -93 vlineto
          642 190 rmoveto
          -1144 -95 callgsubr
          65 -158 hlineto
          -81 36 -32 100 360 callgsubr
          348 82 -539 -98 callgsubr
        </CharString>
        <CharString name="uni0915094D0924">
          218 699 488 callgsubr
          -719 -97 308 -77 vlineto
          9 -9 -15 5 -23 hhcurveto
          -235 -97 75 hlineto
          -11 -8 -6 -14 -22 vvcurveto
          -158 vlineto
          -67 417 callsubr
          61 90 439 callsubr
          162 -17 callgsubr
          33 hlineto
          18 515 callsubr
          -352 -10 callgsubr
          -18 -90 62 hlineto
          92 153 callgsubr
          -14 -4 -10 -9 hvcurveto
          77 vlineto
          endchar
        </CharString>
        <CharString name="uni0915094D0924094D092F">
          779 1056 64 callsubr
          118 44 callgsubr
          76 271 callsubr
          -100 268 callsubr
          -384 -71 callsubr
          137 419 vlineto
          191 callsubr
          -1280 11 callgsubr
          292 -47 callgsubr
          62 -2 hlineto
          -218 328 callgsubr
          175 501 callgsubr
          -128 hlineto
          453 callgsubr
          -92 -68 callsubr
        </CharString>
        <CharString name="uni0915094D0924094D0930">
          448 725 276 rmoveto
          -12 hlineto
          518 callsubr
          50 -32 -23 17 -62 hhcurveto
          -77 -71 callsubr
          81 334 vlineto
          163 callsubr
          -949 11 callgsubr
          349 -47 callgsubr
          38 hlineto
          24 12 -6 -29 17 hvcurveto
          64 -106 386 callsubr
          65 hlineto
          endchar
        </CharString>
        <CharString name="uni0915094D0924094D0935">
          646 922 -32 callsubr
          132 -84 callgsubr
          18 90 -444 hlineto
          272 callgsubr
          531 vlineto
          205 97 rmoveto
          -1147 -95 callgsubr
          65 hlineto
          -4 -5 -3 -9 -9 vvcurveto
          -227 328 callgsubr
          205 501 callgsubr
          hlineto
          -5 -5 -2 -9 -9 vvcurveto
          -135 vlineto
          -81 39 -14 callgsubr
          62 hlineto
          23 14 464 callsubr
        </CharString>
</ttFont>
